<svg width="72" height="59" viewBox="0 0 72 59" fill="none" xmlns="http://www.w3.org/2000/svg">
<path fill-rule="evenodd" clip-rule="evenodd" d="M14.463 0.822967C21.6585 -0.616959 31.122 -0.80595 37.593 5.65572C37.8018 5.86504 37.9673 6.11347 38.08 6.38679C38.1928 6.66012 38.2505 6.95298 38.25 7.24864V56.7461C38.2508 57.1917 38.1193 57.6274 37.8721 57.9982C37.6249 58.3689 37.2732 58.6579 36.8616 58.8285C36.45 58.9991 35.9969 59.0437 35.5599 58.9565C35.123 58.8694 34.7217 58.6545 34.407 58.339C30.6135 54.5412 24.8895 53.5737 18.792 54.1992C12.744 54.8292 6.822 56.9756 3.258 58.7575C2.91497 58.9294 2.53368 59.0107 2.15037 58.9937C1.76706 58.9767 1.39446 58.862 1.06798 58.6604C0.741502 58.4589 0.471994 58.1772 0.28507 57.8421C0.0981447 57.507 1.28751e-05 57.1298 0 56.7461L0 7.24864C1.401e-05 6.83115 0.116192 6.42191 0.335536 6.06669C0.55488 5.71146 0.868738 5.42427 1.242 5.23724L1.269 5.22374L1.3275 5.19674C1.65371 5.03428 1.98381 4.87975 2.3175 4.73327C6.21221 2.98919 10.2866 1.6779 14.4675 0.822967H14.463ZM4.5 8.68856V53.2723C8.307 51.7288 13.248 50.2484 18.333 49.7264C23.4765 49.1955 29.0745 49.623 33.75 52.2463V8.22959C28.9665 4.0493 21.9105 3.92781 15.345 5.24174C11.6183 6.00416 7.98301 7.15956 4.5 8.68856Z" fill="#6C7395"/>
<path fill-rule="evenodd" clip-rule="evenodd" d="M57.537 0.822967C50.346 -0.616959 40.878 -0.80595 34.407 5.65572C34.1982 5.86504 34.0327 6.11347 33.92 6.38679C33.8072 6.66012 33.7495 6.95298 33.75 7.24864V56.7461C33.7492 57.1917 33.8807 57.6274 34.1279 57.9982C34.3751 58.3689 34.7268 58.6579 35.1384 58.8285C35.55 58.9991 36.0031 59.0437 36.4401 58.9565C36.877 58.8694 37.2783 58.6545 37.593 58.339C41.3865 54.5412 47.1105 53.5737 53.208 54.1992C59.256 54.8292 65.178 56.9756 68.742 58.7575C69.085 58.9294 69.4663 59.0107 69.8496 58.9937C70.2329 58.9767 70.6055 58.862 70.932 58.6604C71.2585 58.4589 71.528 58.1772 71.7149 57.8421C71.9019 57.507 72 57.1298 72 56.7461V7.24864C72 6.83115 71.8838 6.42191 71.6645 6.06669C71.4451 5.71146 71.1313 5.42427 70.758 5.23724L70.731 5.22374L70.6725 5.19674L70.461 5.09325C69.2805 4.54206 68.0813 4.03178 66.8655 3.56333C63.8377 2.39183 60.7174 1.47519 57.537 0.822967ZM67.5 8.68856V53.2723C63.693 51.7288 58.752 50.2484 53.667 49.7264C48.5235 49.1955 42.9255 49.623 38.25 52.2463V8.22959C43.0335 4.0493 50.0895 3.92781 56.655 5.24174C60.3817 6.00409 64.017 7.15949 67.5 8.68856Z" fill="#6C7395"/>
</svg>
