<svg width="81" height="61" viewBox="0 0 81 61" fill="none" xmlns="http://www.w3.org/2000/svg">
<path fill-rule="evenodd" clip-rule="evenodd" d="M73.4062 5.08333H7.59375C6.92242 5.08333 6.27859 5.35112 5.80389 5.82777C5.32918 6.30443 5.0625 6.95091 5.0625 7.625V53.375C5.0625 54.0491 5.32918 54.6956 5.80389 55.1722C6.27859 55.6489 6.92242 55.9167 7.59375 55.9167H73.4062C74.0776 55.9167 74.7214 55.6489 75.1961 55.1722C75.6708 54.6956 75.9375 54.0491 75.9375 53.375V7.625C75.9375 6.95091 75.6708 6.30443 75.1961 5.82777C74.7214 5.35112 74.0776 5.08333 73.4062 5.08333ZM7.59375 0C5.57976 0 3.64826 0.803346 2.22416 2.23331C0.800053 3.66328 0 5.60272 0 7.625L0 53.375C0 55.3973 0.800053 57.3367 2.22416 58.7667C3.64826 60.1967 5.57976 61 7.59375 61H73.4062C75.4202 61 77.3517 60.1967 78.7758 58.7667C80.1999 57.3367 81 55.3973 81 53.375V7.625C81 5.60272 80.1999 3.66328 78.7758 2.23331C77.3517 0.803346 75.4202 0 73.4062 0H7.59375Z" fill="#6C7395"/>
<path fill-rule="evenodd" clip-rule="evenodd" d="M35.4375 17.7917C35.4375 17.1176 35.7042 16.4711 36.1789 15.9944C36.6536 15.5178 37.2974 15.25 37.9688 15.25H63.2813C63.9526 15.25 64.5964 15.5178 65.0711 15.9944C65.5458 16.4711 65.8125 17.1176 65.8125 17.7917C65.8125 18.4658 65.5458 19.1122 65.0711 19.5889C64.5964 20.0656 63.9526 20.3333 63.2813 20.3333H37.9688C37.2974 20.3333 36.6536 20.0656 36.1789 19.5889C35.7042 19.1122 35.4375 18.4658 35.4375 17.7917ZM27.864 13.4505C28.0997 13.6866 28.2867 13.9671 28.4144 14.2759C28.542 14.5847 28.6077 14.9157 28.6077 15.25C28.6077 15.5843 28.542 15.9154 28.4144 16.2241C28.2867 16.5329 28.0997 16.8134 27.864 17.0495L20.2703 24.6745C20.0351 24.9112 19.7558 25.099 19.4483 25.2271C19.1407 25.3553 18.8111 25.4212 18.4781 25.4212C18.1452 25.4212 17.8155 25.3553 17.508 25.2271C17.2005 25.099 16.9211 24.9112 16.686 24.6745L14.1548 22.1328C13.9194 21.8965 13.7327 21.616 13.6053 21.3072C13.478 20.9985 13.4124 20.6675 13.4124 20.3333C13.4124 19.6584 13.6795 19.0111 14.1548 18.5338C14.6301 18.0566 15.2747 17.7885 15.9469 17.7885C16.6191 17.7885 17.2637 18.0566 17.739 18.5338L18.4781 19.2811L24.2798 13.4505C24.5149 13.2138 24.7942 13.026 25.1017 12.8979C25.4093 12.7697 25.7389 12.7038 26.0719 12.7038C26.4048 12.7038 26.7345 12.7697 27.042 12.8979C27.3495 13.026 27.6289 13.2138 27.864 13.4505ZM35.4375 38.125C35.4375 37.4509 35.7042 36.8044 36.1789 36.3278C36.6536 35.8511 37.2974 35.5833 37.9688 35.5833H63.2813C63.9526 35.5833 64.5964 35.8511 65.0711 36.3278C65.5458 36.8044 65.8125 37.4509 65.8125 38.125C65.8125 38.7991 65.5458 39.4456 65.0711 39.9222C64.5964 40.3989 63.9526 40.6667 63.2813 40.6667H37.9688C37.2974 40.6667 36.6536 40.3989 36.1789 39.9222C35.7042 39.4456 35.4375 38.7991 35.4375 38.125ZM27.864 33.7838C28.0997 34.0199 28.2867 34.3004 28.4144 34.6092C28.542 34.918 28.6077 35.249 28.6077 35.5833C28.6077 35.9176 28.542 36.2487 28.4144 36.5575C28.2867 36.8663 28.0997 37.1467 27.864 37.3828L20.2703 45.0078C20.0351 45.2445 19.7558 45.4323 19.4483 45.5605C19.1407 45.6886 18.8111 45.7545 18.4781 45.7545C18.1452 45.7545 17.8155 45.6886 17.508 45.5605C17.2005 45.4323 16.9211 45.2445 16.686 45.0078L14.1548 42.4662C13.9194 42.2299 13.7327 41.9493 13.6053 41.6406C13.478 41.3318 13.4124 41.0009 13.4124 40.6667C13.4124 40.3325 13.478 40.0015 13.6053 39.6928C13.7327 39.384 13.9194 39.1035 14.1548 38.8672C14.3901 38.6309 14.6695 38.4434 14.977 38.3155C15.2845 38.1876 15.614 38.1218 15.9469 38.1218C16.2797 38.1218 16.6093 38.1876 16.9168 38.3155C17.2243 38.4434 17.5037 38.6309 17.739 38.8672L18.4781 39.6144L24.2798 33.7838C24.5149 33.5471 24.7942 33.3593 25.1017 33.2312C25.4093 33.1031 25.7389 33.0371 26.0719 33.0371C26.4048 33.0371 26.7345 33.1031 27.042 33.2312C27.3495 33.3593 27.6289 33.5471 27.864 33.7838Z" fill="#6C7395"/>
</svg>
