<svg width="26" height="23" viewBox="0 0 26 23" fill="none" xmlns="http://www.w3.org/2000/svg">
<path fill-rule="evenodd" clip-rule="evenodd" d="M24.7921 2.53751C24.8734 2.6172 24.9378 2.71186 24.9818 2.81608C25.0258 2.9203 25.0484 3.03203 25.0484 3.14487C25.0484 3.2577 25.0258 3.36943 24.9818 3.47365C24.9378 3.57787 24.8734 3.67254 24.7921 3.75222L12.5788 15.7621C12.4977 15.842 12.4015 15.9054 12.2955 15.9486C12.1895 15.9919 12.0759 16.0141 11.9611 16.0141C11.8464 16.0141 11.7327 15.9919 11.6268 15.9486C11.5208 15.9054 11.4245 15.842 11.3435 15.7621L6.10917 10.615C6.02806 10.5353 5.96372 10.4406 5.91982 10.3364C5.87592 10.2322 5.85333 10.1205 5.85333 10.0077C5.85333 9.89487 5.87592 9.78317 5.91982 9.67896C5.96372 9.57475 6.02806 9.48007 6.10917 9.40031C6.19028 9.32055 6.28657 9.25728 6.39255 9.21411C6.49852 9.17095 6.61211 9.14873 6.72682 9.14873C6.84152 9.14873 6.95511 9.17095 7.06109 9.21411C7.16706 9.25728 7.26335 9.32055 7.34446 9.40031L11.9611 13.9418L23.5568 2.53751C23.6379 2.45762 23.7341 2.39424 23.8401 2.35099C23.9461 2.30774 24.0597 2.28548 24.1745 2.28548C24.2892 2.28548 24.4029 2.30774 24.5088 2.35099C24.6148 2.39424 24.7111 2.45762 24.7921 2.53751Z" fill="#5ABB92"/>
<path fill-rule="evenodd" clip-rule="evenodd" d="M11.9611 2.28702C10.0632 2.28702 8.20783 2.84045 6.62974 3.87733C5.05165 4.91421 3.82168 6.38796 3.09537 8.11223C2.36905 9.8365 2.17902 11.7338 2.54929 13.5643C2.91956 15.3948 3.83351 17.0762 5.17557 18.3959C6.51762 19.7156 8.2275 20.6143 10.089 20.9784C11.9505 21.3425 13.88 21.1556 15.6334 20.4414C17.3869 19.7272 18.8856 18.5177 19.9401 16.9659C20.9945 15.4141 21.5573 13.5897 21.5573 11.7234C21.5573 11.4958 21.6492 11.2776 21.8128 11.1168C21.9765 10.9559 22.1983 10.8655 22.4297 10.8655C22.6611 10.8655 22.883 10.9559 23.0466 11.1168C23.2102 11.2776 23.3021 11.4958 23.3021 11.7234C23.3018 14.1782 22.4777 16.5644 20.9577 18.5119C19.4378 20.4593 17.3068 21.8591 14.8953 22.4943C12.4839 23.1294 9.92664 22.9644 7.62027 22.0247C5.3139 21.0851 3.38727 19.4234 2.13917 17.2973C0.891074 15.1713 0.391253 12.6996 0.717228 10.2658C1.0432 7.8319 2.17676 5.5718 3.94209 3.83599C5.70742 2.10018 8.00588 0.985658 10.481 0.66527C12.9561 0.344882 15.4696 0.836533 17.6316 2.06398C17.7359 2.1176 17.828 2.19142 17.9025 2.28097C17.977 2.37053 18.0323 2.47397 18.0651 2.58509C18.0979 2.6962 18.1074 2.81269 18.0933 2.92755C18.0791 3.0424 18.0414 3.15324 17.9825 3.25341C17.9236 3.35358 17.8448 3.441 17.7506 3.51041C17.6565 3.57982 17.5491 3.6298 17.4348 3.65732C17.3205 3.68485 17.2017 3.68936 17.0857 3.67058C16.9696 3.6518 16.8585 3.61012 16.7592 3.54806C15.301 2.71884 13.6456 2.28378 11.9611 2.28702Z" fill="#5ABB92"/>
</svg>
