<svg width="33" height="37" viewBox="0 0 33 37" fill="none" xmlns="http://www.w3.org/2000/svg">
<path d="M6.1875 0C7.82853 0 9.40234 0.649701 10.5627 1.80617C11.7231 2.96265 12.375 4.53117 12.375 6.16667V30.8333C12.375 32.4688 11.7231 34.0373 10.5627 35.1938C9.40234 36.3503 7.82853 37 6.1875 37C4.54647 37 2.97266 36.3503 1.81228 35.1938C0.651895 34.0373 3.45821e-08 32.4688 0 30.8333V6.16667C0 4.53117 0.651895 2.96265 1.81228 1.80617C2.97266 0.649701 4.54647 0 6.1875 0ZM26.8125 0C28.4535 0 30.0273 0.649701 31.1877 1.80617C32.3481 2.96265 33 4.53117 33 6.16667V30.8333C33 32.4688 32.3481 34.0373 31.1877 35.1938C30.0273 36.3503 28.4535 37 26.8125 37C25.1715 37 23.5977 36.3503 22.4373 35.1938C21.2769 34.0373 20.625 32.4688 20.625 30.8333V6.16667C20.625 4.53117 21.2769 2.96265 22.4373 1.80617C23.5977 0.649701 25.1715 0 26.8125 0Z" fill="#E86E6E"/>
</svg>
