<svg width="58" height="58" viewBox="0 0 58 58" fill="none" xmlns="http://www.w3.org/2000/svg">
<path fill-rule="evenodd" clip-rule="evenodd" d="M57.3222 28.748C57.3222 36.2915 54.3255 43.5261 48.9914 48.8603C43.6573 54.1944 36.4227 57.191 28.8792 57.191C21.3356 57.191 14.101 54.1944 8.7669 48.8603C3.4328 43.5261 0.436127 36.2915 0.436127 28.748C0.436127 21.2044 3.4328 13.9698 8.7669 8.63572C14.101 3.30162 21.3356 0.304947 28.8792 0.304947C36.4227 0.304947 43.6573 3.30162 48.9914 8.63572C54.3255 13.9698 57.3222 21.2044 57.3222 28.748ZM23.795 21.7546H19.1019C18.9952 15.0491 24.1861 12.7488 28.9005 12.7488C33.8674 12.7488 38.404 15.3442 38.404 20.7128C38.404 24.5526 36.1464 26.3801 33.9811 28.0262C31.3608 30.0137 30.3902 30.7568 30.3902 33.3095V34.5717H25.7398L25.7149 32.9256C25.5798 29.6297 27.4748 27.5996 29.8676 25.861C31.9652 24.2824 33.2985 23.2443 33.2985 20.9866C33.2985 18.0534 31.0657 16.8339 28.6267 16.8339C25.4233 16.8339 23.7985 18.9778 23.7985 21.7546H23.795ZM28.2428 44.6619C26.1664 44.6619 24.6554 43.261 24.6554 41.366C24.6554 39.4035 26.1664 38.024 28.2463 38.024C30.4115 38.024 31.9012 39.4035 31.9012 41.366C31.9012 43.261 30.408 44.6619 28.2428 44.6619Z" fill="#6C7395"/>
</svg>
