<svg width="23" height="23" viewBox="0 0 23 23" fill="none" xmlns="http://www.w3.org/2000/svg">
<path fill-rule="evenodd" clip-rule="evenodd" d="M22.3041 11.4434C22.3041 14.4011 21.1292 17.2377 19.0377 19.3291C16.9463 21.4205 14.1098 22.5954 11.1521 22.5954C8.19435 22.5954 5.35778 21.4205 3.26636 19.3291C1.17495 17.2377 0 14.4011 0 11.4434C0 8.48567 1.17495 5.6491 3.26636 3.55768C5.35778 1.46627 8.19435 0.291321 11.1521 0.291321C14.1098 0.291321 16.9463 1.46627 19.0377 3.55768C21.1292 5.6491 22.3041 8.48567 22.3041 11.4434ZM9.15863 8.70136H7.31854C7.27672 6.07227 9.31197 5.17034 11.1604 5.17034C13.1078 5.17034 14.8866 6.18797 14.8866 8.29292C14.8866 9.79845 14.0014 10.515 13.1525 11.1604C12.1251 11.9396 11.7445 12.231 11.7445 13.2319V13.7268H9.92115L9.91139 13.0813C9.85842 11.7891 10.6014 10.9931 11.5396 10.3114C12.3621 9.6925 12.8848 9.28545 12.8848 8.40026C12.8848 7.2502 12.0094 6.77206 11.0531 6.77206C9.79708 6.77206 9.16002 7.61264 9.16002 8.70136H9.15863ZM10.9025 17.683C10.0884 17.683 9.49597 17.1337 9.49597 16.3907C9.49597 15.6212 10.0884 15.0803 10.9039 15.0803C11.7529 15.0803 12.337 15.6212 12.337 16.3907C12.337 17.1337 11.7515 17.683 10.9025 17.683Z" fill="white"/>
</svg>
