<svg width="55" height="49" viewBox="0 0 55 49" fill="none" xmlns="http://www.w3.org/2000/svg">
<path d="M47.1459 8.89494L42.5321 4.22133C42.5319 4.2212 42.5318 4.22108 42.5317 4.22096C42.3314 4.01838 42.1728 3.77813 42.0647 3.51412C41.9566 3.24997 41.901 2.96701 41.901 2.68139C41.901 2.39577 41.9566 2.11281 42.0647 1.84865C42.1729 1.58449 42.3316 1.34411 42.5321 1.14145C42.7319 0.938699 42.9695 0.777455 43.2315 0.667261C43.494 0.556897 43.7756 0.5 44.0601 0.5C44.3446 0.5 44.6262 0.556898 44.8887 0.667261C45.1509 0.777536 45.3887 0.938936 45.5886 1.1419L47.1459 8.89494ZM47.1459 8.89494H44.0601C39.2448 8.89494 35.6317 10.8806 32.7129 13.6942C30.6572 15.6727 28.9022 18.1112 27.2822 20.5533C23.3286 14.7311 18.2686 8.89494 9.28079 8.89494H2.65616C2.08214 8.89494 1.533 9.12609 1.12917 9.53534C0.725569 9.94437 0.5 10.4977 0.5 11.0733C0.5 11.6489 0.725569 12.2023 1.12917 12.6113C1.533 13.0206 2.08214 13.2517 2.65616 13.2517H9.28079C16.6227 13.2517 20.5696 18.2009 24.7092 24.5004C20.5696 30.8 16.6227 35.7492 9.28079 35.7492H2.65616C2.08214 35.7492 1.533 35.9803 1.12917 36.3896C0.725568 36.7986 0.5 37.3519 0.5 37.9276C0.5 38.5032 0.725569 39.0565 1.12917 39.4655C1.533 39.8748 2.08214 40.1059 2.65616 40.1059H9.28079C18.2686 40.1059 23.3286 34.2698 27.2822 28.4475C28.9023 30.8898 30.6574 33.3284 32.7132 35.307C35.6319 38.1204 39.245 40.1059 44.0601 40.1059H47.1459L42.5317 44.7799L42.5316 44.78C42.1276 45.1894 41.9018 45.7433 41.9018 46.3195C41.9018 46.8957 42.1276 47.4496 42.5316 47.859C42.9358 48.2686 43.4855 48.5 44.0601 48.5C44.6347 48.5 45.1843 48.2686 45.5886 47.859L53.8689 39.4675L47.1459 8.89494ZM47.1459 35.7492L42.5321 31.0755C42.3316 30.8729 42.1729 30.6325 42.0647 30.3683C41.9566 30.1042 41.901 29.8212 41.901 29.5356C41.901 29.25 41.9566 28.967 42.0647 28.7029C42.1729 28.4387 42.3316 28.1983 42.5321 27.9957C42.7319 27.7929 42.9695 27.6317 43.2315 27.5215C43.494 27.4111 43.7756 27.3542 44.0601 27.3542C44.3446 27.3542 44.6262 27.4111 44.8887 27.5215C45.1511 27.6318 45.389 27.7934 45.589 27.9966L53.8689 36.3876L47.1459 35.7492ZM47.1459 35.7492H44.0601C40.5945 35.7492 37.997 34.378 35.6892 32.1566C33.5772 30.119 31.7863 27.4581 29.8667 24.5004C31.7862 21.543 33.5771 18.8821 35.6889 16.8446C37.9968 14.623 40.5943 13.2517 44.0601 13.2517H47.1459L42.5317 17.9257L42.5316 17.9258C42.1276 18.3352 41.9018 18.8891 41.9018 19.4653C41.9018 20.0414 42.1276 20.5953 42.5316 21.0048C42.9358 21.4144 43.4855 21.6458 44.0601 21.6458C44.6347 21.6458 45.1843 21.4144 45.5886 21.0048L53.8689 12.6133L47.1459 35.7492ZM53.8689 9.53339L45.589 1.14235L53.8689 9.53339ZM54.3362 10.2406C54.2282 9.97663 54.0696 9.7364 53.8693 9.53384V12.6128C54.0696 12.4103 54.2281 12.17 54.3362 11.9061C54.4444 11.6419 54.5 11.359 54.5 11.0733C54.5 10.7877 54.4444 10.5047 54.3362 10.2406ZM54.3362 37.0948C54.2282 36.8308 54.0696 36.5906 53.8693 36.3881V39.467C54.0696 39.2645 54.2282 39.0243 54.3362 38.7603C54.4444 38.4961 54.5 38.2132 54.5 37.9276C54.5 37.6419 54.4444 37.359 54.3362 37.0948Z" fill="#6C7395" stroke="#6C7395"/>
</svg>
