<svg width="80" height="60" viewBox="0 0 80 60" fill="none" xmlns="http://www.w3.org/2000/svg">
<path fill-rule="evenodd" clip-rule="evenodd" d="M14.2718 25.7304C14.0396 25.4976 13.7637 25.3129 13.46 25.1868C13.1563 25.0608 12.8308 24.996 12.502 24.996C12.1732 24.996 11.8476 25.0608 11.5439 25.1868C11.2402 25.3129 10.9643 25.4976 10.7321 25.7304L0.733088 35.7295C0.2637 36.1989 0 36.8355 0 37.4994C0 38.1632 0.2637 38.7998 0.733088 39.2692C1.20248 39.7386 1.8391 40.0023 2.50292 40.0023C3.16673 40.0023 3.80336 39.7386 4.27275 39.2692L12.502 31.0349L20.7312 39.2692C21.2006 39.7386 21.8372 40.0023 22.501 40.0023C23.1648 40.0023 23.8015 39.7386 24.2708 39.2692C24.7402 38.7998 25.0039 38.1632 25.0039 37.4994C25.0039 36.8355 24.7402 36.1989 24.2708 35.7295L14.2718 25.7304ZM79.2656 20.7308C79.0334 20.498 78.7575 20.3133 78.4538 20.1873C78.1501 20.0613 77.8246 19.9964 77.4958 19.9964C77.167 19.9964 76.8414 20.0613 76.5377 20.1873C76.234 20.3133 75.9581 20.498 75.7259 20.7308L67.4967 28.9651L59.2675 20.7308C58.7981 20.2614 58.1615 19.9977 57.4977 19.9977C56.8339 19.9977 56.1972 20.2614 55.7278 20.7308C55.2585 21.2002 54.9948 21.8368 54.9948 22.5006C54.9948 23.1645 55.2585 23.8011 55.7278 24.2705L65.7269 34.2696C65.9591 34.5024 66.2349 34.6871 66.5386 34.8131C66.8423 34.9392 67.1679 35.004 67.4967 35.004C67.8255 35.004 68.1511 34.9392 68.4548 34.8131C68.7585 34.6871 69.0343 34.5024 69.2666 34.2696L79.2656 24.2705C79.4984 24.0383 79.6831 23.7624 79.8091 23.4587C79.9351 23.155 80 22.8294 80 22.5006C80 22.1718 79.9351 21.8463 79.8091 21.5426C79.6831 21.2389 79.4984 20.963 79.2656 20.7308Z" fill="#6C7395"/>
<path fill-rule="evenodd" clip-rule="evenodd" d="M39.9993 5.00215C35.8355 4.99895 31.737 6.03694 28.0767 8.02168C24.4164 10.0064 21.3104 12.8749 19.0413 16.3662C18.6683 16.8951 18.1046 17.2587 17.4688 17.3805C16.8331 17.5023 16.1749 17.3727 15.6328 17.0191C15.0907 16.6654 14.7069 16.1153 14.5621 15.4844C14.4174 14.8535 14.523 14.191 14.8567 13.6364C18.3839 8.21605 23.5682 4.08066 29.6369 1.84669C35.7057 -0.387287 42.3339 -0.600226 48.5335 1.23961C54.7331 3.07945 60.1722 6.87354 64.04 12.0563C67.9077 17.2391 69.997 23.5331 69.9965 30C69.9965 30.6636 69.7329 31.3001 69.2636 31.7694C68.7943 32.2387 68.1579 32.5023 67.4942 32.5023C66.8306 32.5023 66.1941 32.2387 65.7249 31.7694C65.2556 31.3001 64.992 30.6636 64.992 30C64.992 23.3702 62.3583 17.0119 57.6703 12.3238C52.9824 7.63584 46.6241 5.00215 39.9943 5.00215H39.9993ZM12.502 27.5002C13.1649 27.5002 13.8008 27.7636 14.2696 28.2324C14.7384 28.7012 15.0017 29.337 15.0017 30C14.9999 35.3906 16.7406 40.6373 19.9642 44.9578C23.1878 49.2782 27.7217 52.4409 32.8896 53.9741C38.0575 55.5072 43.5825 55.3288 48.6407 53.4653C53.6989 51.6019 58.0192 48.1533 60.9573 43.6338C61.1305 43.346 61.36 43.0961 61.6319 42.8989C61.9039 42.7017 62.2128 42.5614 62.5402 42.4863C62.8676 42.4112 63.2068 42.4028 63.5375 42.4617C63.8682 42.5206 64.1836 42.6456 64.4649 42.8291C64.7463 43.0126 64.9877 43.251 65.1749 43.5299C65.3621 43.8088 65.4911 44.1226 65.5543 44.4525C65.6175 44.7824 65.6135 45.1217 65.5427 45.45C65.4718 45.7784 65.3356 46.0891 65.1419 46.3636C61.6148 51.784 56.4305 55.9193 50.3617 58.1533C44.293 60.3873 37.6648 60.6002 31.4652 58.7604C25.2655 56.9206 19.8265 53.1265 15.9587 47.9437C12.091 42.7609 10.0016 36.4669 10.0022 30C10.0022 29.6713 10.067 29.3458 10.193 29.0422C10.3189 28.7386 10.5035 28.4628 10.7361 28.2306C10.9688 27.9984 11.245 27.8144 11.5488 27.6891C11.8527 27.5637 12.1783 27.4996 12.507 27.5002H12.502Z" fill="#6C7395"/>
</svg>
