<svg width="37" height="28" viewBox="0 0 37 28" fill="none" xmlns="http://www.w3.org/2000/svg">
<path fill-rule="evenodd" clip-rule="evenodd" d="M33.1546 2.30243H3.42979C3.12658 2.30243 2.83578 2.42338 2.62138 2.63868C2.40698 2.85398 2.28653 3.14598 2.28653 3.45046V24.1149C2.28653 24.4194 2.40698 24.7114 2.62138 24.9267C2.83578 25.142 3.12658 25.263 3.42979 25.263H33.1546C33.4578 25.263 33.7486 25.142 33.963 24.9267C34.1774 24.7114 34.2979 24.4194 34.2979 24.1149V3.45046C34.2979 3.14598 34.1774 2.85398 33.963 2.63868C33.7486 2.42338 33.4578 2.30243 33.1546 2.30243ZM3.42979 0.00637817C2.52015 0.00637817 1.64777 0.369236 1.00456 1.01513C0.361352 1.66102 0 2.53703 0 3.45046L0 24.1149C0 25.0284 0.361352 25.9044 1.00456 26.5503C1.64777 27.1962 2.52015 27.559 3.42979 27.559H33.1546C34.0643 27.559 34.9366 27.1962 35.5798 26.5503C36.2231 25.9044 36.5844 25.0284 36.5844 24.1149V3.45046C36.5844 2.53703 36.2231 1.66102 35.5798 1.01513C34.9366 0.369236 34.0643 0.00637817 33.1546 0.00637817H3.42979Z" fill="white"/>
<path fill-rule="evenodd" clip-rule="evenodd" d="M16.0057 8.04256C16.0057 7.73809 16.1261 7.44608 16.3405 7.23079C16.5549 7.01549 16.8457 6.89454 17.1489 6.89454H28.5816C28.8848 6.89454 29.1756 7.01549 29.39 7.23079C29.6044 7.44608 29.7248 7.73809 29.7248 8.04256C29.7248 8.34704 29.6044 8.63904 29.39 8.85434C29.1756 9.06964 28.8848 9.19059 28.5816 9.19059H17.1489C16.8457 9.19059 16.5549 9.06964 16.3405 8.85434C16.1261 8.63904 16.0057 8.34704 16.0057 8.04256ZM12.585 6.08173C12.6915 6.18838 12.776 6.31506 12.8336 6.45454C12.8912 6.59401 12.9209 6.74353 12.9209 6.89454C12.9209 7.04554 12.8912 7.19506 12.8336 7.33454C12.776 7.47401 12.6915 7.6007 12.585 7.70734L9.15525 11.1514C9.04905 11.2583 8.92289 11.3432 8.78399 11.401C8.6451 11.4589 8.4962 11.4887 8.34582 11.4887C8.19544 11.4887 8.04654 11.4589 7.90764 11.401C7.76875 11.3432 7.64259 11.2583 7.53639 11.1514L6.39313 10.0034C6.28683 9.89665 6.20251 9.76994 6.14498 9.63048C6.08746 9.49101 6.05785 9.34154 6.05785 9.19059C6.05785 8.88573 6.17845 8.59336 6.39313 8.37779C6.6078 8.16222 6.89896 8.04111 7.20256 8.04111C7.50615 8.04111 7.79731 8.16222 8.01199 8.37779L8.34582 8.71531L10.9662 6.08173C11.0724 5.97482 11.1985 5.89 11.3374 5.83212C11.4763 5.77425 11.6252 5.74446 11.7756 5.74446C11.926 5.74446 12.0749 5.77425 12.2138 5.83212C12.3527 5.89 12.4788 5.97482 12.585 6.08173ZM16.0057 17.2268C16.0057 16.9223 16.1261 16.6303 16.3405 16.415C16.5549 16.1997 16.8457 16.0787 17.1489 16.0787H28.5816C28.8848 16.0787 29.1756 16.1997 29.39 16.415C29.6044 16.6303 29.7248 16.9223 29.7248 17.2268C29.7248 17.5312 29.6044 17.8233 29.39 18.0386C29.1756 18.2538 28.8848 18.3748 28.5816 18.3748H17.1489C16.8457 18.3748 16.5549 18.2538 16.3405 18.0386C16.1261 17.8233 16.0057 17.5312 16.0057 17.2268ZM12.585 15.2659C12.6915 15.3726 12.776 15.4993 12.8336 15.6387C12.8912 15.7782 12.9209 15.9277 12.9209 16.0787C12.9209 16.2298 12.8912 16.3793 12.8336 16.5187C12.776 16.6582 12.6915 16.7849 12.585 16.8916L9.15525 20.3356C9.04905 20.4425 8.92289 20.5274 8.78399 20.5852C8.6451 20.6431 8.4962 20.6729 8.34582 20.6729C8.19544 20.6729 8.04654 20.6431 7.90764 20.5852C7.76875 20.5274 7.64259 20.4425 7.53639 20.3356L6.39313 19.1876C6.28683 19.0809 6.20251 18.9541 6.14498 18.8147C6.08746 18.6752 6.05785 18.5258 6.05785 18.3748C6.05785 18.2239 6.08746 18.0744 6.14498 17.9349C6.20251 17.7955 6.28683 17.6687 6.39313 17.562C6.49942 17.4553 6.62561 17.3706 6.76449 17.3128C6.90338 17.2551 7.05223 17.2253 7.20256 17.2253C7.35288 17.2253 7.50173 17.2551 7.64062 17.3128C7.7795 17.3706 7.90569 17.4553 8.01199 17.562L8.34582 17.8995L10.9662 15.2659C11.0724 15.159 11.1985 15.0742 11.3374 15.0163C11.4763 14.9585 11.6252 14.9287 11.7756 14.9287C11.926 14.9287 12.0749 14.9585 12.2138 15.0163C12.3527 15.0742 12.4788 15.159 12.585 15.2659Z" fill="white"/>
</svg>
