<svg width="36" height="36" viewBox="0 0 36 36" fill="none" xmlns="http://www.w3.org/2000/svg">
<path fill-rule="evenodd" clip-rule="evenodd" d="M0 4.5C0 3.30653 0.474106 2.16193 1.31802 1.31802C2.16193 0.474106 3.30653 0 4.5 0L31.5 0C32.6935 0 33.8381 0.474106 34.682 1.31802C35.5259 2.16193 36 3.30653 36 4.5V31.5C36 32.6935 35.5259 33.8381 34.682 34.682C33.8381 35.5259 32.6935 36 31.5 36H4.5C3.30653 36 2.16193 35.5259 1.31802 34.682C0.474106 33.8381 0 32.6935 0 31.5V4.5ZM12.375 27C12.3749 27.2169 12.4376 27.4291 12.5553 27.6112C12.6731 27.7933 12.841 27.9375 13.0388 28.0264C13.2365 28.1153 13.4558 28.1452 13.6702 28.1124C13.8845 28.0796 14.0848 27.9855 14.247 27.8415L24.372 18.8415C24.491 18.7359 24.5862 18.6064 24.6514 18.4613C24.7166 18.3163 24.7503 18.159 24.7503 18C24.7503 17.841 24.7166 17.6837 24.6514 17.5387C24.5862 17.3936 24.491 17.2641 24.372 17.1585L14.247 8.1585C14.0848 8.01451 13.8845 7.92045 13.6702 7.88764C13.4558 7.85484 13.2365 7.88469 13.0388 7.9736C12.841 8.06251 12.6731 8.2067 12.5553 8.38879C12.4376 8.57089 12.3749 8.78314 12.375 9V27Z" fill="#DDFFC2"/>
</svg>
