<svg width="54" height="53" viewBox="0 0 54 53" fill="none" xmlns="http://www.w3.org/2000/svg">
<path fill-rule="evenodd" clip-rule="evenodd" d="M18.667 2.27618C18.667 1.84224 18.8394 1.42607 19.1463 1.11923C19.4531 0.812383 19.8693 0.639999 20.3033 0.639999L33.3938 0.639999C33.8278 0.639999 34.244 0.812383 34.5509 1.11923C34.8577 1.42607 35.0301 1.84224 35.0301 2.27618C35.0301 2.71013 34.8577 3.1263 34.5509 3.43314C34.244 3.73999 33.8278 3.91237 33.3938 3.91237H30.1212V7.41381C34.4831 8.0454 38.5703 9.9214 41.8929 12.8169C45.2154 15.7125 47.6324 19.5047 48.8541 23.739C50.0758 27.9734 50.0504 32.4702 48.7809 36.6904C47.5114 40.9107 45.0516 44.6753 41.6965 47.5331L44.3702 50.2033C44.6775 50.5106 44.8501 50.9273 44.8501 51.3617C44.8501 51.7962 44.6775 52.2129 44.3702 52.5202C44.063 52.8274 43.6462 53 43.2117 53C42.7772 53 42.3605 52.8274 42.0532 52.5202L39.0293 49.4932C35.3819 51.7891 31.1585 53.0043 26.8486 52.9979C22.539 53.0053 18.3156 51.7913 14.6678 49.4965L11.6439 52.5202C11.3367 52.8274 10.9199 53 10.4854 53C10.0509 53 9.63417 52.8274 9.32691 52.5202C9.01965 52.2129 8.84704 51.7962 8.84704 51.3617C8.84704 50.9273 9.01965 50.5106 9.32691 50.2033L12.0006 47.5331C8.64552 44.6753 6.18578 40.9107 4.91626 36.6904C3.64674 32.4702 3.6213 27.9734 4.843 23.739C6.0647 19.5047 8.4817 15.7125 11.8043 12.8169C15.1269 9.9214 19.2141 8.0454 23.5759 7.41381V3.91237H20.3C19.8661 3.91237 19.4499 3.73999 19.143 3.43314C18.8361 3.1263 18.6637 2.71013 18.6637 2.27618H18.667ZM3.48199 18.2683C2.63523 17.5318 1.94906 16.629 1.46615 15.616C0.983235 14.603 0.71391 13.5015 0.674922 12.38C0.635934 11.2584 0.828115 10.1409 1.23952 9.09682C1.65092 8.05275 2.27274 7.10447 3.06631 6.31096C3.85988 5.51745 4.80824 4.89568 5.85239 4.48431C6.89655 4.07294 8.01418 3.88077 9.13579 3.91976C10.2574 3.95875 11.359 4.22805 12.3721 4.71092C13.3851 5.1938 14.288 5.87991 15.0246 6.72661C10.05 9.25205 6.00763 13.2941 3.48199 18.2683ZM44.848 3.91237C42.3837 3.91237 40.1714 5.00207 38.6726 6.72661C43.6471 9.25205 47.6895 13.2941 50.2151 18.2683C51.4734 17.1749 52.3676 15.7233 52.778 14.1078C53.1885 12.4923 53.0957 10.7899 52.512 9.22863C51.9283 7.66733 50.8815 6.32156 49.5119 5.37147C48.1422 4.42137 46.515 3.9123 44.848 3.91237ZM28.4849 17.0019C28.4849 16.5679 28.3125 16.1517 28.0056 15.8449C27.6988 15.5381 27.2825 15.3657 26.8486 15.3657C26.4146 15.3657 25.9984 15.5381 25.6915 15.8449C25.3847 16.1517 25.2123 16.5679 25.2123 17.0019V29.7052L20.4768 39.1754C20.3785 39.3677 20.3193 39.5776 20.3026 39.7929C20.2858 40.0081 20.3118 40.2246 20.3792 40.4298C20.4465 40.635 20.5537 40.8248 20.6948 40.9883C20.8358 41.1518 21.0078 41.2858 21.2009 41.3826C21.3939 41.4793 21.6042 41.5369 21.8197 41.552C22.0351 41.5671 22.2514 41.5393 22.456 41.4705C22.6607 41.4016 22.8497 41.2928 23.0121 41.1506C23.1746 41.0083 23.3072 40.8353 23.4025 40.6415L28.3114 30.8243C28.4255 30.5968 28.4849 30.3458 28.4849 30.0913V17.0019Z" fill="#6C7395"/>
</svg>
