<svg width="29" height="22" viewBox="0 0 29 22" fill="none" xmlns="http://www.w3.org/2000/svg">
<path fill-rule="evenodd" clip-rule="evenodd" d="M1.8125 22C1.8125 22 0 22 0 20.1667C0 18.3333 1.8125 12.8333 10.875 12.8333C19.9375 12.8333 21.75 18.3333 21.75 20.1667C21.75 22 19.9375 22 19.9375 22H1.8125ZM10.875 11C12.3171 11 13.7002 10.4205 14.7199 9.38909C15.7396 8.35764 16.3125 6.95869 16.3125 5.5C16.3125 4.04131 15.7396 2.64236 14.7199 1.61091C13.7002 0.579463 12.3171 0 10.875 0C9.43289 0 8.04984 0.579463 7.03011 1.61091C6.01038 2.64236 5.4375 4.04131 5.4375 5.5C5.4375 6.95869 6.01038 8.35764 7.03011 9.38909C8.04984 10.4205 9.43289 11 10.875 11ZM23.5625 13.75C23.5625 13.5069 23.658 13.2737 23.8279 13.1018C23.9979 12.9299 24.2284 12.8333 24.4688 12.8333H28.0938C28.3341 12.8333 28.5646 12.9299 28.7346 13.1018C28.9045 13.2737 29 13.5069 29 13.75C29 13.9931 28.9045 14.2263 28.7346 14.3982C28.5646 14.5701 28.3341 14.6667 28.0938 14.6667H24.4688C24.2284 14.6667 23.9979 14.5701 23.8279 14.3982C23.658 14.2263 23.5625 13.9931 23.5625 13.75ZM19.9375 8.25C19.9375 8.00688 20.033 7.77373 20.2029 7.60182C20.3729 7.42991 20.6034 7.33333 20.8438 7.33333H28.0938C28.3341 7.33333 28.5646 7.42991 28.7346 7.60182C28.9045 7.77373 29 8.00688 29 8.25C29 8.49312 28.9045 8.72627 28.7346 8.89818C28.5646 9.07009 28.3341 9.16667 28.0938 9.16667H20.8438C20.6034 9.16667 20.3729 9.07009 20.2029 8.89818C20.033 8.72627 19.9375 8.49312 19.9375 8.25ZM19.9375 2.75C19.9375 2.50688 20.033 2.27373 20.2029 2.10182C20.3729 1.92991 20.6034 1.83333 20.8438 1.83333H28.0938C28.3341 1.83333 28.5646 1.92991 28.7346 2.10182C28.9045 2.27373 29 2.50688 29 2.75C29 2.99312 28.9045 3.22627 28.7346 3.39818C28.5646 3.57009 28.3341 3.66667 28.0938 3.66667H20.8438C20.6034 3.66667 20.3729 3.57009 20.2029 3.39818C20.033 3.22627 19.9375 2.99312 19.9375 2.75ZM23.5625 19.25C23.5625 19.0069 23.658 18.7737 23.8279 18.6018C23.9979 18.4299 24.2284 18.3333 24.4688 18.3333H28.0938C28.3341 18.3333 28.5646 18.4299 28.7346 18.6018C28.9045 18.7737 29 19.0069 29 19.25C29 19.4931 28.9045 19.7263 28.7346 19.8982C28.5646 20.0701 28.3341 20.1667 28.0938 20.1667H24.4688C24.2284 20.1667 23.9979 20.0701 23.8279 19.8982C23.658 19.7263 23.5625 19.4931 23.5625 19.25Z" fill="white"/>
</svg>
