<svg width="69" height="51" viewBox="0 0 69 51" fill="none" xmlns="http://www.w3.org/2000/svg">
<path fill-rule="evenodd" clip-rule="evenodd" d="M5.14173 50.8815C5.14173 50.8815 0.886047 50.8815 0.886047 46.6437C0.886047 42.406 5.14173 29.6928 26.4201 29.6928C47.6985 29.6928 51.9542 42.406 51.9542 46.6437C51.9542 50.8815 47.6985 50.8815 47.6985 50.8815H5.14173ZM26.4201 25.4551C29.8062 25.4551 33.0535 24.1157 35.4478 21.7315C37.8421 19.3473 39.1872 16.1137 39.1872 12.7419C39.1872 9.3702 37.8421 6.13656 35.4478 3.75237C33.0535 1.36819 29.8062 0.0287704 26.4201 0.0287704C23.0341 0.0287704 19.7868 1.36819 17.3925 3.75237C14.9982 6.13656 13.6531 9.3702 13.6531 12.7419C13.6531 16.1137 14.9982 19.3473 17.3925 21.7315C19.7868 24.1157 23.0341 25.4551 26.4201 25.4551ZM56.2099 31.8117C56.2099 31.2498 56.4341 30.7108 56.8331 30.3134C57.2322 29.9161 57.7734 29.6928 58.3378 29.6928H66.8491C67.4135 29.6928 67.9547 29.9161 68.3537 30.3134C68.7528 30.7108 68.977 31.2498 68.977 31.8117C68.977 32.3737 68.7528 32.9126 68.3537 33.31C67.9547 33.7073 67.4135 33.9306 66.8491 33.9306H58.3378C57.7734 33.9306 57.2322 33.7073 56.8331 33.31C56.4341 32.9126 56.2099 32.3737 56.2099 31.8117ZM47.6985 19.0985C47.6985 18.5366 47.9227 17.9976 48.3218 17.6003C48.7208 17.2029 49.2621 16.9797 49.8264 16.9797H66.8491C67.4135 16.9797 67.9547 17.2029 68.3537 17.6003C68.7528 17.9976 68.977 18.5366 68.977 19.0985C68.977 19.6605 68.7528 20.1994 68.3537 20.5968C67.9547 20.9942 67.4135 21.2174 66.8491 21.2174H49.8264C49.2621 21.2174 48.7208 20.9942 48.3218 20.5968C47.9227 20.1994 47.6985 19.6605 47.6985 19.0985ZM47.6985 6.38536C47.6985 5.8234 47.9227 5.28446 48.3218 4.8871C48.7208 4.48973 49.2621 4.2665 49.8264 4.2665H66.8491C67.4135 4.2665 67.9547 4.48973 68.3537 4.8871C68.7528 5.28446 68.977 5.8234 68.977 6.38536C68.977 6.94732 68.7528 7.48626 68.3537 7.88362C67.9547 8.28098 67.4135 8.50422 66.8491 8.50422H49.8264C49.2621 8.50422 48.7208 8.28098 48.3218 7.88362C47.9227 7.48626 47.6985 6.94732 47.6985 6.38536ZM56.2099 44.5249C56.2099 43.9629 56.4341 43.424 56.8331 43.0266C57.2322 42.6293 57.7734 42.406 58.3378 42.406H66.8491C67.4135 42.406 67.9547 42.6293 68.3537 43.0266C68.7528 43.424 68.977 43.9629 68.977 44.5249C68.977 45.0868 68.7528 45.6258 68.3537 46.0231C67.9547 46.4205 67.4135 46.6437 66.8491 46.6437H58.3378C57.7734 46.6437 57.2322 46.4205 56.8331 46.0231C56.4341 45.6258 56.2099 45.0868 56.2099 44.5249Z" fill="#6C7395"/>
</svg>
