<svg width="24" height="23" viewBox="0 0 24 23" fill="none" xmlns="http://www.w3.org/2000/svg">
<g clip-path="url(#clip0)">
<path d="M1 22.2C0.7 22.2 0.5 22.1 0.3 21.9C0.1 21.7 0 21.4 0 21.2L0.3 16.1C0.3 15.9 0.4 15.6 0.6 15.5L15.7 0.3C15.9 0.1 16.2 0 16.4 0C16.7 0 16.9 0.1 17.1 0.3L21.9 5.1C22.1 5.3 22.2 5.5 22.2 5.8C22.2 6.1 22.1 6.3 21.9 6.5L6.8 21.6C6.6 21.8 6.4 21.9 6.2 21.9L1 22.2ZM2.3 16.6L2.1 20.2L5.7 20L19.8 5.8L16.4 2.4L2.3 16.6Z" fill="white"/>
<path d="M18.5 9C18.2 9 18 8.9 17.8 8.7L13.5 4.4C13.1 4 13.1 3.4 13.5 3C13.9 2.6 14.5 2.6 14.9 3L19.2 7.3C19.6 7.7 19.6 8.3 19.2 8.7C19 8.9 18.8 9 18.5 9Z" fill="white"/>
<path d="M4.5 18.7C4.2 18.7 4 18.6 3.8 18.4C3.4 18 3.4 17.4 3.8 17L15.6 5.19999C16 4.79999 16.6 4.79999 17 5.19999C17.4 5.59999 17.4 6.19999 17 6.59999L5.2 18.4C5 18.6 4.7 18.7 4.5 18.7Z" fill="white"/>
<path d="M1.6 18.7C1.5 18.7 1.5 18.7 1.4 18.7C1.3 18.7 1.3 18.7 1.2 18.7L1 21.2L3.4 21.1C3.4 21 3.4 20.9 3.5 20.8C3.6 19.6 2.7 18.7 1.6 18.7Z" fill="white"/>
<path d="M22.2 22.1H11C10.4 22.1 10 21.7 10 21.1C10 20.5 10.4 20.1 11 20.1H22.2C22.8 20.1 23.2 20.5 23.2 21.1C23.2 21.6 22.8 22.1 22.2 22.1Z" fill="white"/>
</g>
<defs>
<clipPath id="clip0">
<rect width="23.2" height="22.2" fill="white"/>
</clipPath>
</defs>
</svg>
