<?xml version="1.0" encoding="utf-8"?>
<!-- Generator: Adobe Illustrator 25.4.1, SVG Export Plug-In . SVG Version: 6.00 Build 0)  -->
<svg version="1.1" xmlns="http://www.w3.org/2000/svg" xmlns:xlink="http://www.w3.org/1999/xlink" x="0px" y="0px"
	 viewBox="0 0 1158.8 78" style="enable-background:new 0 0 1158.8 78;" xml:space="preserve">
<style type="text/css">
	.st0{fill:#294596;}
	.st1{fill:none;stroke:#294596;stroke-width:0.3;}
	.st2{fill:none;stroke:#294596;stroke-width:0.6;stroke-miterlimit:10;}
	.st3{fill:none;stroke:#294596;stroke-width:0.6;}
	.st4{fill:none;stroke:#294596;stroke-width:1.5;}
	.st5{fill:none;stroke:#294596;}
	.st6{fill:none;stroke:#294596;stroke-width:2;}
	.st7{fill:none;}
</style>
<g id="rels">
	<g>
		<rect y="68.4" class="st0" width="1158.6" height="3"/>
		<rect x="0.1" y="65.8" class="st0" width="1158.6" height="1.1"/>
	</g>
</g>
<g id="train">
	<polygon class="st1" points="112.9,21.4 109.1,21.4 105.3,21.4 103.9,23.2 103.9,29.6 106.6,32.6 106.6,43.4 109.1,43.4 
		111.5,43.4 111.5,32.6 114.3,29.6 114.3,23.2 	"/>
	<line class="st2" x1="182.2" y1="56.7" x2="170" y2="56.7"/>
	
		<rect x="179.4" y="59.2" transform="matrix(-1 -1.224647e-16 1.224647e-16 -1 358.9953 123.1445)" class="st0" width="0.3" height="4.7"/>
	
		<rect x="178.8" y="59.2" transform="matrix(-1 -1.224647e-16 1.224647e-16 -1 357.912 123.1445)" class="st0" width="0.3" height="4.7"/>
	
		<rect x="178.3" y="59.2" transform="matrix(-1 -1.224647e-16 1.224647e-16 -1 356.8286 123.1445)" class="st0" width="0.3" height="4.7"/>
	
		<rect x="177.7" y="59.2" transform="matrix(-1 -1.224647e-16 1.224647e-16 -1 355.7453 123.1445)" class="st0" width="0.3" height="4.7"/>
	
		<rect x="174.5" y="59.2" transform="matrix(-1 -1.224647e-16 1.224647e-16 -1 349.1805 123.1445)" class="st0" width="0.3" height="4.7"/>
	
		<rect x="173.9" y="59.2" transform="matrix(-1 -1.224647e-16 1.224647e-16 -1 348.0971 123.1445)" class="st0" width="0.3" height="4.7"/>
	
		<rect x="173.4" y="59.2" transform="matrix(-1 -1.224647e-16 1.224647e-16 -1 347.0138 123.1445)" class="st0" width="0.3" height="4.7"/>
	
		<rect x="172.8" y="59.2" transform="matrix(-1 -1.224647e-16 1.224647e-16 -1 345.9305 123.1445)" class="st0" width="0.3" height="4.7"/>
	<line class="st1" x1="156.3" y1="30.1" x2="115.1" y2="30.1"/>
	<path class="st1" d="M179.3,36.9c0,0,0.3,1.6,2,2.2c0.1,0,0.3,0.1,0.4,0.1h25.4"/>
	<line class="st1" x1="196.6" y1="7.6" x2="196.6" y2="10.6"/>
	<polyline class="st3" points="151.8,58.1 151.8,59.7 153,59.7 151.2,63 127.4,63 125.6,59.6 127.8,59.6 127.8,58.1 129.9,58.1 
		129.9,59.2 150.4,59.2 150.4,58.1 	"/>
	<polyline class="st2" points="153.6,51.4 153.6,55.5 154.4,56.4 154.4,57.4 153.6,58.1 125.5,58.1 124.9,57.4 124.9,56.1 
		125.6,55.5 125.6,51.4 127.8,51.4 127.8,55.5 151.2,55.5 151.2,50.8 	"/>
	<path class="st4" d="M101.8,63c18.5,0,33.5,0,53.3,0c0,0-4.5-7.5,5.7-12.2"/>
	<polyline class="st2" points="183.1,56.7 182.2,56.7 181.5,55.5 170.5,55.5 170,56.7 169.3,56.7 	"/>
	<path class="st2" d="M178.4,49.2h20.1c0.1,0,0.3,0.1,0.3,0.2l3.5,7.6c0.2,0.5,0.6,1,0.9,1.4c0.9,0.9,2.5,2.5,3.8,2.9"/>
	
		<rect x="164.6" y="47.4" transform="matrix(-1 -1.224647e-16 1.224647e-16 -1 340.2777 96.3297)" class="st2" width="11" height="1.5"/>
	
		<rect x="147.5" y="35.2" transform="matrix(-1 -1.224647e-16 1.224647e-16 -1 297.705 70.8682)" class="st0" width="2.7" height="0.4"/>
	
		<rect x="147.2" y="33" transform="matrix(-1 -1.224647e-16 1.224647e-16 -1 297.7235 66.9052)" class="st0" width="3.3" height="0.9"/>
	
		<rect x="122.2" y="35.2" transform="matrix(-1 -1.224647e-16 1.224647e-16 -1 247.0369 70.8682)" class="st0" width="2.7" height="0.4"/>
	
		<rect x="121.9" y="33" transform="matrix(-1 -1.224647e-16 1.224647e-16 -1 247.0555 66.9052)" class="st0" width="3.3" height="0.9"/>
	<polyline class="st5" points="159.6,43.8 159.6,33.1 158.6,31.7 139.1,31.7 138,33 138,43.8 	"/>
	<polyline class="st5" points="134.3,43.8 134.3,33.1 133.3,31.7 113.8,31.7 112.7,33 112.7,43.8 	"/>
	<polyline class="st1" points="197.7,10.4 182.9,10.4 160.3,10.4 155.6,15.3 	"/>
	
		<rect x="172.7" y="27.2" transform="matrix(-1 -1.224647e-16 1.224647e-16 -1 349.4259 55.3297)" class="st0" width="4.1" height="0.9"/>
	<path class="st5" d="M168.2,24.2h3.7c1,0,1.9-0.8,1.9-1.9v-4.9c0-1-0.8-1.9-1.9-1.9h-3.7c-1,0-1.9,0.8-1.9,1.9v4.9
		C166.3,23.4,167.2,24.2,168.2,24.2z"/>
	<path class="st3" d="M181.1,28.1h17.8c0.7,0,1.2-0.5,1.2-1.2l0,0c0-0.7-0.5-1.2-1.2-1.2h-17.8c-0.7,0-1.2,0.5-1.2,1.2l0,0
		C179.9,27.6,180.4,28.1,181.1,28.1z"/>
	<path class="st3" d="M176.6,43.8V15.7c0-0.1,0-0.2,0-0.3l-0.2-0.8c-0.1-0.6-0.7-1-1.3-1h-10.3c-0.7,0-1.2,0.5-1.3,1.2l-0.1,0.7
		c0,0.1,0,0.1,0,0.2v16.1v12"/>
	
		<rect x="154.5" y="21.8" transform="matrix(-1 -1.224647e-16 1.224647e-16 -1 309.4166 48.488)" class="st0" width="0.5" height="4.9"/>
	
		<rect x="153.4" y="21.8" transform="matrix(-1 -1.224647e-16 1.224647e-16 -1 307.25 48.488)" class="st0" width="0.5" height="4.9"/>
	
		<rect x="152.3" y="21.8" transform="matrix(-1 -1.224647e-16 1.224647e-16 -1 305.0832 48.488)" class="st0" width="0.5" height="4.9"/>
	
		<rect x="151.2" y="21.8" transform="matrix(-1 -1.224647e-16 1.224647e-16 -1 302.9166 48.488)" class="st0" width="0.5" height="4.9"/>
	
		<rect x="150.1" y="21.8" transform="matrix(-1 -1.224647e-16 1.224647e-16 -1 300.75 48.488)" class="st0" width="0.5" height="4.9"/>
	
		<rect x="149" y="21.8" transform="matrix(-1 -1.224647e-16 1.224647e-16 -1 298.5832 48.488)" class="st0" width="0.5" height="4.9"/>
	
		<rect x="148" y="21.8" transform="matrix(-1 -1.224647e-16 1.224647e-16 -1 296.4166 48.488)" class="st0" width="0.5" height="4.9"/>
	
		<rect x="146.9" y="21.8" transform="matrix(-1 -1.224647e-16 1.224647e-16 -1 294.25 48.488)" class="st0" width="0.5" height="4.9"/>
	
		<rect x="145.8" y="21.8" transform="matrix(-1 -1.224647e-16 1.224647e-16 -1 292.0832 48.488)" class="st0" width="0.5" height="4.9"/>
	
		<rect x="144.7" y="21.8" transform="matrix(-1 -1.224647e-16 1.224647e-16 -1 289.9166 48.488)" class="st0" width="0.5" height="4.9"/>
	
		<rect x="143.6" y="21.8" transform="matrix(-1 -1.224647e-16 1.224647e-16 -1 287.75 48.488)" class="st0" width="0.5" height="4.9"/>
	
		<rect x="142.5" y="21.8" transform="matrix(-1 -1.224647e-16 1.224647e-16 -1 285.5832 48.488)" class="st0" width="0.5" height="4.9"/>
	
		<rect x="141.5" y="21.8" transform="matrix(-1 -1.224647e-16 1.224647e-16 -1 283.4166 48.488)" class="st0" width="0.5" height="4.9"/>
	
		<rect x="140.4" y="21.8" transform="matrix(-1 -1.224647e-16 1.224647e-16 -1 281.25 48.488)" class="st0" width="0.5" height="4.9"/>
	<polygon class="st3" points="156.6,27.7 156.6,23.2 154.8,20.5 140.2,20.5 138.8,23.2 138.8,27.7 	"/>
	
		<rect x="131.6" y="21.8" transform="matrix(-1 -1.224647e-16 1.224647e-16 -1 263.7592 48.488)" class="st0" width="0.5" height="4.9"/>
	
		<rect x="130.5" y="21.8" transform="matrix(-1 -1.224647e-16 1.224647e-16 -1 261.5926 48.488)" class="st0" width="0.5" height="4.9"/>
	
		<rect x="129.5" y="21.8" transform="matrix(-1 -1.224647e-16 1.224647e-16 -1 259.4258 48.488)" class="st0" width="0.5" height="4.9"/>
	
		<rect x="128.4" y="21.8" transform="matrix(-1 -1.224647e-16 1.224647e-16 -1 257.2592 48.488)" class="st0" width="0.5" height="4.9"/>
	
		<rect x="127.3" y="21.8" transform="matrix(-1 -1.224647e-16 1.224647e-16 -1 255.0926 48.488)" class="st0" width="0.5" height="4.9"/>
	
		<rect x="126.2" y="21.8" transform="matrix(-1 -1.224647e-16 1.224647e-16 -1 252.9258 48.488)" class="st0" width="0.5" height="4.9"/>
	
		<rect x="125.1" y="21.8" transform="matrix(-1 -1.224647e-16 1.224647e-16 -1 250.7592 48.488)" class="st0" width="0.5" height="4.9"/>
	
		<rect x="124" y="21.8" transform="matrix(-1 -1.224647e-16 1.224647e-16 -1 248.5926 48.488)" class="st0" width="0.5" height="4.9"/>
	
		<rect x="123" y="21.8" transform="matrix(-1 -1.224647e-16 1.224647e-16 -1 246.4258 48.488)" class="st0" width="0.5" height="4.9"/>
	
		<rect x="121.9" y="21.8" transform="matrix(-1 -1.224647e-16 1.224647e-16 -1 244.2592 48.488)" class="st0" width="0.5" height="4.9"/>
	
		<rect x="120.8" y="21.8" transform="matrix(-1 -1.224647e-16 1.224647e-16 -1 242.0926 48.488)" class="st0" width="0.5" height="4.9"/>
	
		<rect x="119.7" y="21.8" transform="matrix(-1 -1.224647e-16 1.224647e-16 -1 239.9258 48.488)" class="st0" width="0.5" height="4.9"/>
	
		<rect x="118.6" y="21.8" transform="matrix(-1 -1.224647e-16 1.224647e-16 -1 237.7592 48.488)" class="st0" width="0.5" height="4.9"/>
	
		<rect x="117.5" y="21.8" transform="matrix(-1 -1.224647e-16 1.224647e-16 -1 235.5926 48.488)" class="st0" width="0.5" height="4.9"/>
	<polygon class="st3" points="133.8,27.7 133.8,23.2 132,20.5 117.3,20.5 115.9,23.2 115.9,27.7 	"/>
	<polygon class="st0" points="174.1,40.5 165.8,40.5 166.9,41.2 173.1,41.2 	"/>
	
		<rect x="161.5" y="21.4" transform="matrix(-1 -1.224647e-16 1.224647e-16 -1 324.111 72.287)" class="st3" width="1.2" height="29.4"/>
	
		<rect x="177.2" y="21.4" transform="matrix(-1 -1.224647e-16 1.224647e-16 -1 355.6666 72.287)" class="st3" width="1.2" height="29.4"/>
	<path class="st5" d="M190.3,65.3c-3.1,0-5.7-2.5-5.7-5.6c0-3.1,2.5-5.6,5.7-5.6c3.1,0,5.7,2.5,5.7,5.6
		C195.9,62.8,193.4,65.3,190.3,65.3z"/>
	<path class="st6" d="M190.3,63c-1.8,0-3.3-1.5-3.3-3.3c0-1.8,1.5-3.3,3.3-3.3c1.8,0,3.3,1.5,3.3,3.3C193.6,61.6,192.1,63,190.3,63z
		"/>
	<path class="st5" d="M161.9,65.3c-3.1,0-5.7-2.5-5.7-5.6c0-3.1,2.5-5.6,5.7-5.6c3.1,0,5.7,2.5,5.7,5.6
		C167.6,62.8,165.1,65.3,161.9,65.3z"/>
	<path class="st6" d="M161.9,63c-1.8,0-3.3-1.5-3.3-3.3c0-1.8,1.5-3.3,3.3-3.3c1.8,0,3.3,1.5,3.3,3.3C165.3,61.6,163.8,63,161.9,63z
		"/>
	<path class="st0" d="M212.4,52.5v2.6h3.7v-2.6h2.1v1.6c-0.7,0.8-2,2.5-1.9,3.9h-1.4v-1.3h-1.6V58h-4.8c0,0-0.2-1.2-0.6-4.2h-2v-1.3
		H212.4z"/>
	<rect x="348.3" y="46.2" class="st0" width="1.9" height="7.5"/>
	<g>
		<path class="st6" d="M444.5,53.2l-4.7,4.7h-43.6l-5.2-4.7"/>
		<path class="st5" d="M442.1,53.2l-2.3,2.3h-43.6l-2.8-2.8"/>
		<rect x="354.4" y="1" class="st5" width="124.7" height="42.9"/>
		<rect x="354.9" y="47.2" class="st6" width="123.7" height="5.5"/>
		<path class="st5" d="M468.9,65.4c-3.1,0-5.7-2.5-5.7-5.6c0-3.1,2.5-5.6,5.7-5.6c3.1,0,5.7,2.5,5.7,5.6
			C474.5,62.9,472,65.4,468.9,65.4z"/>
		<path class="st6" d="M468.9,63.1c-1.8,0-3.3-1.5-3.3-3.3c0-1.8,1.5-3.3,3.3-3.3c1.8,0,3.3,1.5,3.3,3.3
			C472.2,61.6,470.7,63.1,468.9,63.1z"/>
		<path class="st5" d="M450.1,65.4c-3.1,0-5.7-2.5-5.7-5.6c0-3.1,2.5-5.6,5.7-5.6c3.1,0,5.7,2.5,5.7,5.6
			C455.8,62.9,453.2,65.4,450.1,65.4z"/>
		<path class="st6" d="M450.1,63.1c-1.8,0-3.3-1.5-3.3-3.3c0-1.8,1.5-3.3,3.3-3.3s3.3,1.5,3.3,3.3C453.4,61.6,451.9,63.1,450.1,63.1
			z"/>
		<path class="st5" d="M385.4,65.4c-3.1,0-5.7-2.5-5.7-5.6c0-3.1,2.5-5.6,5.7-5.6c3.1,0,5.7,2.5,5.7,5.6
			C391,62.9,388.5,65.4,385.4,65.4z"/>
		<path class="st6" d="M385.4,63.1c-1.8,0-3.3-1.5-3.3-3.3c0-1.8,1.5-3.3,3.3-3.3c1.8,0,3.3,1.5,3.3,3.3
			C388.7,61.6,387.2,63.1,385.4,63.1z"/>
		<path class="st5" d="M366.6,65.4c-3.1,0-5.7-2.5-5.7-5.6c0-3.1,2.5-5.6,5.7-5.6c3.1,0,5.7,2.5,5.7,5.6
			C372.3,62.9,369.7,65.4,366.6,65.4z"/>
		<path class="st6" d="M366.6,63.1c-1.8,0-3.3-1.5-3.3-3.3c0-1.8,1.5-3.3,3.3-3.3c1.8,0,3.3,1.5,3.3,3.3
			C370,61.6,368.5,63.1,366.6,63.1z"/>
		<rect x="463.7" y="49" class="st0" width="1.9" height="1.9"/>
		<rect x="444.9" y="49" class="st0" width="1.9" height="1.9"/>
		<rect x="426.2" y="49" class="st0" width="1.9" height="1.9"/>
		<rect x="407.4" y="49" class="st0" width="1.9" height="1.9"/>
		<rect x="388.7" y="49" class="st0" width="1.9" height="1.9"/>
		<rect x="369.9" y="49" class="st0" width="1.9" height="1.9"/>
		<rect x="357.8" y="4.7" class="st6" width="117.1" height="38.7"/>
		<rect x="464.2" y="5.9" class="st5" width="2.8" height="36.3"/>
		<rect x="456.7" y="5.9" class="st5" width="2.8" height="36.3"/>
		<rect x="449.2" y="5.9" class="st5" width="2.8" height="36.3"/>
		<rect x="441.7" y="5.9" class="st5" width="2.8" height="36.3"/>
		<rect x="434.2" y="5.9" class="st5" width="2.8" height="36.3"/>
		<rect x="426.7" y="5.9" class="st5" width="2.8" height="36.3"/>
		<rect x="419.2" y="5.9" class="st5" width="2.8" height="36.3"/>
		<rect x="411.7" y="5.9" class="st5" width="2.8" height="36.3"/>
		<rect x="404.2" y="5.9" class="st5" width="2.8" height="36.3"/>
		<rect x="396.7" y="5.9" class="st5" width="2.8" height="36.3"/>
		<rect x="389.2" y="5.9" class="st5" width="2.8" height="36.3"/>
		<rect x="381.6" y="5.9" class="st5" width="2.8" height="36.3"/>
		<rect x="374.1" y="5.9" class="st5" width="2.8" height="36.3"/>
		<rect x="366.6" y="5.9" class="st5" width="2.8" height="36.3"/>
		<rect x="483.4" y="46.2" class="st0" width="1.9" height="7.5"/>
		<rect x="478.7" y="49" class="st0" width="5.6" height="1.9"/>
		<rect x="349.3" y="49" class="st0" width="5.6" height="1.9"/>
		<rect x="474.5" y="1" class="st5" width="4.6" height="4.1"/>
		<rect x="354.4" y="1" class="st5" width="4.6" height="4.1"/>
		<rect x="455.2" y="58.3" class="st0" width="7.5" height="0.9"/>
		<rect x="371.8" y="58.3" class="st0" width="7.5" height="0.9"/>
		<rect x="455.3" y="56.5" class="st0" width="8.4" height="0.9"/>
		<rect x="371.8" y="56.5" class="st0" width="8.4" height="0.9"/>
		<rect x="457.1" y="53.7" class="st0" width="11.3" height="0.9"/>
		<rect x="366.1" y="53.7" class="st0" width="11.3" height="0.9"/>
	</g>
	<g>
		<path class="st6" d="M579.3,53.2l-4.7,4.7H531l-5.2-4.7"/>
		<path class="st5" d="M576.9,53.2l-2.3,2.3H531l-2.8-2.8"/>
		<rect x="489.3" y="1" class="st5" width="124.7" height="42.9"/>
		<rect x="489.8" y="47.2" class="st6" width="123.7" height="5.5"/>
		<path class="st5" d="M603.7,65.4c-3.1,0-5.7-2.5-5.7-5.6c0-3.1,2.5-5.6,5.7-5.6s5.7,2.5,5.7,5.6C609.3,62.9,606.8,65.4,603.7,65.4
			z"/>
		<path class="st6" d="M603.7,63.1c-1.8,0-3.3-1.5-3.3-3.3c0-1.8,1.5-3.3,3.3-3.3c1.8,0,3.3,1.5,3.3,3.3
			C607,61.6,605.5,63.1,603.7,63.1z"/>
		<path class="st5" d="M584.9,65.4c-3.1,0-5.7-2.5-5.7-5.6c0-3.1,2.5-5.6,5.7-5.6c3.1,0,5.7,2.5,5.7,5.6
			C590.6,62.9,588,65.4,584.9,65.4z"/>
		<path class="st6" d="M584.9,63.1c-1.8,0-3.3-1.5-3.3-3.3c0-1.8,1.5-3.3,3.3-3.3c1.8,0,3.3,1.5,3.3,3.3
			C588.2,61.6,586.7,63.1,584.9,63.1z"/>
		<path class="st5" d="M520.2,65.4c-3.1,0-5.7-2.5-5.7-5.6c0-3.1,2.5-5.6,5.7-5.6c3.1,0,5.7,2.5,5.7,5.6
			C525.8,62.9,523.3,65.4,520.2,65.4z"/>
		<path class="st6" d="M520.2,63.1c-1.8,0-3.3-1.5-3.3-3.3c0-1.8,1.5-3.3,3.3-3.3c1.8,0,3.3,1.5,3.3,3.3
			C523.5,61.6,522,63.1,520.2,63.1z"/>
		<path class="st5" d="M501.4,65.4c-3.1,0-5.7-2.5-5.7-5.6c0-3.1,2.5-5.6,5.7-5.6c3.1,0,5.7,2.5,5.7,5.6
			C507.1,62.9,504.5,65.4,501.4,65.4z"/>
		<path class="st6" d="M501.4,63.1c-1.8,0-3.3-1.5-3.3-3.3c0-1.8,1.5-3.3,3.3-3.3c1.8,0,3.3,1.5,3.3,3.3
			C504.8,61.6,503.3,63.1,501.4,63.1z"/>
		<rect x="598.5" y="49" class="st0" width="1.9" height="1.9"/>
		<rect x="579.7" y="49" class="st0" width="1.9" height="1.9"/>
		<rect x="561" y="49" class="st0" width="1.9" height="1.9"/>
		<rect x="542.2" y="49" class="st0" width="1.9" height="1.9"/>
		<rect x="523.5" y="49" class="st0" width="1.9" height="1.9"/>
		<rect x="504.7" y="49" class="st0" width="1.9" height="1.9"/>
		<rect x="492.6" y="4.7" class="st6" width="117.1" height="38.7"/>
		<rect x="599" y="5.9" class="st5" width="2.8" height="36.3"/>
		<rect x="591.5" y="5.9" class="st5" width="2.8" height="36.3"/>
		<rect x="584" y="5.9" class="st5" width="2.8" height="36.3"/>
		<rect x="576.5" y="5.9" class="st5" width="2.8" height="36.3"/>
		<rect x="569" y="5.9" class="st5" width="2.8" height="36.3"/>
		<rect x="561.5" y="5.9" class="st5" width="2.8" height="36.3"/>
		<rect x="554" y="5.9" class="st5" width="2.8" height="36.3"/>
		<rect x="546.5" y="5.9" class="st5" width="2.8" height="36.3"/>
		<rect x="539" y="5.9" class="st5" width="2.8" height="36.3"/>
		<rect x="531.5" y="5.9" class="st5" width="2.8" height="36.3"/>
		<rect x="524" y="5.9" class="st5" width="2.8" height="36.3"/>
		<rect x="516.5" y="5.9" class="st5" width="2.8" height="36.3"/>
		<rect x="509" y="5.9" class="st5" width="2.8" height="36.3"/>
		<rect x="501.4" y="5.9" class="st5" width="2.8" height="36.3"/>
		<rect x="618.2" y="46.2" class="st0" width="1.9" height="7.5"/>
		<rect x="613.5" y="49" class="st0" width="5.6" height="1.9"/>
		<rect x="484.1" y="49" class="st0" width="5.6" height="1.9"/>
		<rect x="609.3" y="1" class="st5" width="4.6" height="4.1"/>
		<rect x="489.3" y="1" class="st5" width="4.6" height="4.1"/>
		<rect x="590.1" y="58.3" class="st0" width="7.5" height="0.9"/>
		<rect x="506.6" y="58.3" class="st0" width="7.5" height="0.9"/>
		<rect x="590.1" y="56.5" class="st0" width="8.4" height="0.9"/>
		<rect x="506.6" y="56.5" class="st0" width="8.4" height="0.9"/>
		<rect x="591.9" y="53.7" class="st0" width="11.3" height="0.9"/>
		<rect x="500.9" y="53.7" class="st0" width="11.3" height="0.9"/>
	</g>
	<g>
		<path class="st6" d="M714.1,53.2l-4.7,4.7h-43.6l-5.2-4.7"/>
		<path class="st5" d="M711.7,53.2l-2.3,2.3h-43.6l-2.8-2.8"/>
		<rect x="624.1" y="1" class="st5" width="124.7" height="42.9"/>
		<rect x="624.6" y="47.2" class="st6" width="123.7" height="5.5"/>
		<path class="st5" d="M738.5,65.4c-3.1,0-5.7-2.5-5.7-5.6c0-3.1,2.5-5.6,5.7-5.6s5.7,2.5,5.7,5.6C744.1,62.9,741.6,65.4,738.5,65.4
			z"/>
		<path class="st6" d="M738.5,63.1c-1.8,0-3.3-1.5-3.3-3.3c0-1.8,1.5-3.3,3.3-3.3c1.8,0,3.3,1.5,3.3,3.3
			C741.8,61.6,740.3,63.1,738.5,63.1z"/>
		<path class="st5" d="M719.7,65.4c-3.1,0-5.7-2.5-5.7-5.6c0-3.1,2.5-5.6,5.7-5.6c3.1,0,5.7,2.5,5.7,5.6
			C725.4,62.9,722.8,65.4,719.7,65.4z"/>
		<path class="st6" d="M719.7,63.1c-1.8,0-3.3-1.5-3.3-3.3c0-1.8,1.5-3.3,3.3-3.3s3.3,1.5,3.3,3.3C723.1,61.6,721.6,63.1,719.7,63.1
			z"/>
		<path class="st5" d="M655,65.4c-3.1,0-5.7-2.5-5.7-5.6c0-3.1,2.5-5.6,5.7-5.6c3.1,0,5.7,2.5,5.7,5.6
			C660.6,62.9,658.1,65.4,655,65.4z"/>
		<path class="st6" d="M655,63.1c-1.8,0-3.3-1.5-3.3-3.3c0-1.8,1.5-3.3,3.3-3.3c1.8,0,3.3,1.5,3.3,3.3
			C658.3,61.6,656.8,63.1,655,63.1z"/>
		<path class="st5" d="M636.2,65.4c-3.1,0-5.7-2.5-5.7-5.6c0-3.1,2.5-5.6,5.7-5.6c3.1,0,5.7,2.5,5.7,5.6
			C641.9,62.9,639.4,65.4,636.2,65.4z"/>
		<path class="st6" d="M636.2,63.1c-1.8,0-3.3-1.5-3.3-3.3c0-1.8,1.5-3.3,3.3-3.3s3.3,1.5,3.3,3.3C639.6,61.6,638.1,63.1,636.2,63.1
			z"/>
		<rect x="733.3" y="49" class="st0" width="1.9" height="1.9"/>
		<rect x="714.6" y="49" class="st0" width="1.9" height="1.9"/>
		<rect x="695.8" y="49" class="st0" width="1.9" height="1.9"/>
		<rect x="677" y="49" class="st0" width="1.9" height="1.9"/>
		<rect x="658.3" y="49" class="st0" width="1.9" height="1.9"/>
		<rect x="639.5" y="49" class="st0" width="1.9" height="1.9"/>
		<rect x="627.4" y="4.7" class="st6" width="117.1" height="38.7"/>
		<rect x="733.8" y="5.9" class="st5" width="2.8" height="36.3"/>
		<rect x="726.3" y="5.9" class="st5" width="2.8" height="36.3"/>
		<rect x="718.8" y="5.9" class="st5" width="2.8" height="36.3"/>
		<rect x="711.3" y="5.9" class="st5" width="2.8" height="36.3"/>
		<rect x="703.8" y="5.9" class="st5" width="2.8" height="36.3"/>
		<rect x="696.3" y="5.9" class="st5" width="2.8" height="36.3"/>
		<rect x="688.8" y="5.9" class="st5" width="2.8" height="36.3"/>
		<rect x="681.3" y="5.9" class="st5" width="2.8" height="36.3"/>
		<rect x="673.8" y="5.9" class="st5" width="2.8" height="36.3"/>
		<rect x="666.3" y="5.9" class="st5" width="2.8" height="36.3"/>
		<rect x="658.8" y="5.9" class="st5" width="2.8" height="36.3"/>
		<rect x="651.3" y="5.9" class="st5" width="2.8" height="36.3"/>
		<rect x="643.8" y="5.9" class="st5" width="2.8" height="36.3"/>
		<rect x="636.3" y="5.9" class="st5" width="2.8" height="36.3"/>
		<rect x="753" y="46.2" class="st0" width="1.9" height="7.5"/>
		<rect x="748.3" y="49" class="st0" width="5.6" height="1.9"/>
		<rect x="618.9" y="49" class="st0" width="5.6" height="1.9"/>
		<rect x="744.1" y="1" class="st5" width="4.6" height="4.1"/>
		<rect x="624.1" y="1" class="st5" width="4.6" height="4.1"/>
		<rect x="724.9" y="58.3" class="st0" width="7.5" height="0.9"/>
		<rect x="641.4" y="58.3" class="st0" width="7.5" height="0.9"/>
		<rect x="724.9" y="56.5" class="st0" width="8.4" height="0.9"/>
		<rect x="641.4" y="56.5" class="st0" width="8.4" height="0.9"/>
		<rect x="726.7" y="53.7" class="st0" width="11.3" height="0.9"/>
		<rect x="635.8" y="53.7" class="st0" width="11.3" height="0.9"/>
	</g>
	<g>
		<path class="st6" d="M848.9,53.2l-4.7,4.7h-43.6l-5.2-4.7"/>
		<path class="st5" d="M846.5,53.2l-2.3,2.3h-43.6l-2.8-2.8"/>
		<rect x="758.9" y="1" class="st5" width="124.7" height="42.9"/>
		<rect x="759.4" y="47.2" class="st6" width="123.7" height="5.5"/>
		<path class="st5" d="M873.3,65.4c-3.1,0-5.7-2.5-5.7-5.6c0-3.1,2.5-5.6,5.7-5.6c3.1,0,5.7,2.5,5.7,5.6
			C878.9,62.9,876.4,65.4,873.3,65.4z"/>
		<path class="st6" d="M873.3,63.1c-1.8,0-3.3-1.5-3.3-3.3c0-1.8,1.5-3.3,3.3-3.3c1.8,0,3.3,1.5,3.3,3.3
			C876.6,61.6,875.1,63.1,873.3,63.1z"/>
		<path class="st5" d="M854.5,65.4c-3.1,0-5.7-2.5-5.7-5.6c0-3.1,2.5-5.6,5.7-5.6c3.1,0,5.7,2.5,5.7,5.6
			C860.2,62.9,857.6,65.4,854.5,65.4z"/>
		<path class="st6" d="M854.5,63.1c-1.8,0-3.3-1.5-3.3-3.3c0-1.8,1.5-3.3,3.3-3.3c1.8,0,3.3,1.5,3.3,3.3
			C857.9,61.6,856.4,63.1,854.5,63.1z"/>
		<path class="st5" d="M789.8,65.4c-3.1,0-5.7-2.5-5.7-5.6c0-3.1,2.5-5.6,5.7-5.6c3.1,0,5.7,2.5,5.7,5.6
			C795.5,62.9,792.9,65.4,789.8,65.4z"/>
		<path class="st6" d="M789.8,63.1c-1.8,0-3.3-1.5-3.3-3.3c0-1.8,1.5-3.3,3.3-3.3c1.8,0,3.3,1.5,3.3,3.3
			C793.1,61.6,791.6,63.1,789.8,63.1z"/>
		<path class="st5" d="M771,65.4c-3.1,0-5.7-2.5-5.7-5.6c0-3.1,2.5-5.6,5.7-5.6c3.1,0,5.7,2.5,5.7,5.6
			C776.7,62.9,774.2,65.4,771,65.4z"/>
		<path class="st6" d="M771,63.1c-1.8,0-3.3-1.5-3.3-3.3c0-1.8,1.5-3.3,3.3-3.3s3.3,1.5,3.3,3.3C774.4,61.6,772.9,63.1,771,63.1z"/>
		<rect x="868.1" y="49" class="st0" width="1.9" height="1.9"/>
		<rect x="849.4" y="49" class="st0" width="1.9" height="1.9"/>
		<rect x="830.6" y="49" class="st0" width="1.9" height="1.9"/>
		<rect x="811.8" y="49" class="st0" width="1.9" height="1.9"/>
		<rect x="793.1" y="49" class="st0" width="1.9" height="1.9"/>
		<rect x="774.3" y="49" class="st0" width="1.9" height="1.9"/>
		<rect x="762.2" y="4.7" class="st6" width="117.1" height="38.7"/>
		<rect x="868.6" y="5.9" class="st5" width="2.8" height="36.3"/>
		<rect x="861.1" y="5.9" class="st5" width="2.8" height="36.3"/>
		<rect x="853.6" y="5.9" class="st5" width="2.8" height="36.3"/>
		<rect x="846.1" y="5.9" class="st5" width="2.8" height="36.3"/>
		<rect x="838.6" y="5.9" class="st5" width="2.8" height="36.3"/>
		<rect x="831.1" y="5.9" class="st5" width="2.8" height="36.3"/>
		<rect x="823.6" y="5.9" class="st5" width="2.8" height="36.3"/>
		<rect x="816.1" y="5.9" class="st5" width="2.8" height="36.3"/>
		<rect x="808.6" y="5.9" class="st5" width="2.8" height="36.3"/>
		<rect x="801.1" y="5.9" class="st5" width="2.8" height="36.3"/>
		<rect x="793.6" y="5.9" class="st5" width="2.8" height="36.3"/>
		<rect x="786.1" y="5.9" class="st5" width="2.8" height="36.3"/>
		<rect x="778.6" y="5.9" class="st5" width="2.8" height="36.3"/>
		<rect x="771.1" y="5.9" class="st5" width="2.8" height="36.3"/>
		<rect x="887.8" y="46.2" class="st0" width="1.9" height="7.5"/>
		<rect x="883.1" y="49" class="st0" width="5.6" height="1.9"/>
		<rect x="753.7" y="49" class="st0" width="5.6" height="1.9"/>
		<rect x="878.9" y="1" class="st5" width="4.6" height="4.1"/>
		<rect x="758.9" y="1" class="st5" width="4.6" height="4.1"/>
		<rect x="859.7" y="58.3" class="st0" width="7.5" height="0.9"/>
		<rect x="776.2" y="58.3" class="st0" width="7.5" height="0.9"/>
		<rect x="859.7" y="56.5" class="st0" width="8.4" height="0.9"/>
		<rect x="776.2" y="56.5" class="st0" width="8.4" height="0.9"/>
		<rect x="861.6" y="53.7" class="st0" width="11.3" height="0.9"/>
		<rect x="770.6" y="53.7" class="st0" width="11.3" height="0.9"/>
	</g>
	<g>
		<path class="st6" d="M983.7,53.2l-4.7,4.7h-43.6l-5.2-4.7"/>
		<path class="st5" d="M981.4,53.2l-2.3,2.3h-43.6l-2.8-2.8"/>
		<rect x="893.7" y="1" class="st5" width="124.7" height="42.9"/>
		<rect x="894.2" y="47.2" class="st6" width="123.7" height="5.5"/>
		<path class="st5" d="M1008.1,65.4c-3.1,0-5.7-2.5-5.7-5.6c0-3.1,2.5-5.6,5.7-5.6s5.7,2.5,5.7,5.6
			C1013.8,62.9,1011.2,65.4,1008.1,65.4z"/>
		<path class="st6" d="M1008.1,63.1c-1.8,0-3.3-1.5-3.3-3.3c0-1.8,1.5-3.3,3.3-3.3c1.8,0,3.3,1.5,3.3,3.3
			C1011.4,61.6,1009.9,63.1,1008.1,63.1z"/>
		<path class="st5" d="M989.3,65.4c-3.1,0-5.7-2.5-5.7-5.6c0-3.1,2.5-5.6,5.7-5.6c3.1,0,5.7,2.5,5.7,5.6
			C995,62.9,992.5,65.4,989.3,65.4z"/>
		<path class="st6" d="M989.3,63.1c-1.8,0-3.3-1.5-3.3-3.3c0-1.8,1.5-3.3,3.3-3.3c1.8,0,3.3,1.5,3.3,3.3
			C992.7,61.6,991.2,63.1,989.3,63.1z"/>
		<path class="st5" d="M924.6,65.4c-3.1,0-5.7-2.5-5.7-5.6c0-3.1,2.5-5.6,5.7-5.6c3.1,0,5.7,2.5,5.7,5.6
			C930.3,62.9,927.7,65.4,924.6,65.4z"/>
		<path class="st6" d="M924.6,63.1c-1.8,0-3.3-1.5-3.3-3.3c0-1.8,1.5-3.3,3.3-3.3c1.8,0,3.3,1.5,3.3,3.3
			C928,61.6,926.5,63.1,924.6,63.1z"/>
		<path class="st5" d="M905.8,65.4c-3.1,0-5.7-2.5-5.7-5.6c0-3.1,2.5-5.6,5.7-5.6s5.7,2.5,5.7,5.6C911.5,62.9,909,65.4,905.8,65.4z"
			/>
		<path class="st6" d="M905.8,63.1c-1.8,0-3.3-1.5-3.3-3.3c0-1.8,1.5-3.3,3.3-3.3c1.8,0,3.3,1.5,3.3,3.3
			C909.2,61.6,907.7,63.1,905.8,63.1z"/>
		<rect x="1002.9" y="49" class="st0" width="1.9" height="1.9"/>
		<rect x="984.2" y="49" class="st0" width="1.9" height="1.9"/>
		<rect x="965.4" y="49" class="st0" width="1.9" height="1.9"/>
		<rect x="946.7" y="49" class="st0" width="1.9" height="1.9"/>
		<rect x="927.9" y="49" class="st0" width="1.9" height="1.9"/>
		<rect x="909.1" y="49" class="st0" width="1.9" height="1.9"/>
		<rect x="897" y="4.7" class="st6" width="117.1" height="38.7"/>
		<rect x="1003.4" y="5.9" class="st5" width="2.8" height="36.3"/>
		<rect x="995.9" y="5.9" class="st5" width="2.8" height="36.3"/>
		<rect x="988.4" y="5.9" class="st5" width="2.8" height="36.3"/>
		<rect x="980.9" y="5.9" class="st5" width="2.8" height="36.3"/>
		<rect x="973.4" y="5.9" class="st5" width="2.8" height="36.3"/>
		<rect x="965.9" y="5.9" class="st5" width="2.8" height="36.3"/>
		<rect x="958.4" y="5.9" class="st5" width="2.8" height="36.3"/>
		<rect x="950.9" y="5.9" class="st5" width="2.8" height="36.3"/>
		<rect x="943.4" y="5.9" class="st5" width="2.8" height="36.3"/>
		<rect x="935.9" y="5.9" class="st5" width="2.8" height="36.3"/>
		<rect x="928.4" y="5.9" class="st5" width="2.8" height="36.3"/>
		<rect x="920.9" y="5.9" class="st5" width="2.8" height="36.3"/>
		<rect x="913.4" y="5.9" class="st5" width="2.8" height="36.3"/>
		<rect x="905.9" y="5.9" class="st5" width="2.8" height="36.3"/>
		<rect x="1022.6" y="46.2" class="st0" width="1.9" height="7.5"/>
		<rect x="1017.9" y="49" class="st0" width="5.6" height="1.9"/>
		<rect x="888.5" y="49" class="st0" width="5.6" height="1.9"/>
		<rect x="1013.8" y="1" class="st5" width="4.6" height="4.1"/>
		<rect x="893.7" y="1" class="st5" width="4.6" height="4.1"/>
		<rect x="994.5" y="58.3" class="st0" width="7.5" height="0.9"/>
		<rect x="911" y="58.3" class="st0" width="7.5" height="0.9"/>
		<rect x="994.5" y="56.5" class="st0" width="8.4" height="0.9"/>
		<rect x="911" y="56.5" class="st0" width="8.4" height="0.9"/>
		<rect x="996.4" y="53.7" class="st0" width="11.3" height="0.9"/>
		<rect x="905.4" y="53.7" class="st0" width="11.3" height="0.9"/>
	</g>
	<g>
		<path class="st6" d="M1117.8,53.2l-4.7,4.7h-43.6l-5.2-4.7"/>
		<path class="st5" d="M1115.5,53.2l-2.3,2.3h-43.6l-2.8-2.8"/>
		<rect x="1027.8" y="1" class="st5" width="124.7" height="42.9"/>
		<rect x="1028.3" y="47.2" class="st6" width="123.7" height="5.5"/>
		<path class="st5" d="M1142.2,65.4c-3.1,0-5.7-2.5-5.7-5.6c0-3.1,2.5-5.6,5.7-5.6c3.1,0,5.7,2.5,5.7,5.6
			C1147.9,62.9,1145.4,65.4,1142.2,65.4z"/>
		<path class="st6" d="M1142.2,63.1c-1.8,0-3.3-1.5-3.3-3.3c0-1.8,1.5-3.3,3.3-3.3c1.8,0,3.3,1.5,3.3,3.3
			C1145.6,61.6,1144.1,63.1,1142.2,63.1z"/>
		<path class="st5" d="M1123.5,65.4c-3.1,0-5.7-2.5-5.7-5.6c0-3.1,2.5-5.6,5.7-5.6c3.1,0,5.7,2.5,5.7,5.6
			C1129.1,62.9,1126.6,65.4,1123.5,65.4z"/>
		<path class="st6" d="M1123.5,63.1c-1.8,0-3.3-1.5-3.3-3.3c0-1.8,1.5-3.3,3.3-3.3c1.8,0,3.3,1.5,3.3,3.3
			C1126.8,61.6,1125.3,63.1,1123.5,63.1z"/>
		<path class="st5" d="M1058.7,65.4c-3.1,0-5.7-2.5-5.7-5.6c0-3.1,2.5-5.6,5.7-5.6c3.1,0,5.7,2.5,5.7,5.6
			C1064.4,62.9,1061.9,65.4,1058.7,65.4z"/>
		<path class="st6" d="M1058.7,63.1c-1.8,0-3.3-1.5-3.3-3.3c0-1.8,1.5-3.3,3.3-3.3c1.8,0,3.3,1.5,3.3,3.3
			C1062.1,61.6,1060.6,63.1,1058.7,63.1z"/>
		<path class="st5" d="M1040,65.4c-3.1,0-5.7-2.5-5.7-5.6c0-3.1,2.5-5.6,5.7-5.6s5.7,2.5,5.7,5.6C1045.6,62.9,1043.1,65.4,1040,65.4
			z"/>
		<path class="st6" d="M1040,63.1c-1.8,0-3.3-1.5-3.3-3.3c0-1.8,1.5-3.3,3.3-3.3s3.3,1.5,3.3,3.3C1043.3,61.6,1041.8,63.1,1040,63.1
			z"/>
		<rect x="1137.1" y="49" class="st0" width="1.9" height="1.9"/>
		<rect x="1118.3" y="49" class="st0" width="1.9" height="1.9"/>
		<rect x="1099.5" y="49" class="st0" width="1.9" height="1.9"/>
		<rect x="1080.8" y="49" class="st0" width="1.9" height="1.9"/>
		<rect x="1062" y="49" class="st0" width="1.9" height="1.9"/>
		<rect x="1043.3" y="49" class="st0" width="1.9" height="1.9"/>
		<rect x="1031.1" y="4.7" class="st6" width="117.1" height="38.7"/>
		<rect x="1137.6" y="5.9" class="st5" width="2.8" height="36.3"/>
		<rect x="1130.1" y="5.9" class="st5" width="2.8" height="36.3"/>
		<rect x="1122.6" y="5.9" class="st5" width="2.8" height="36.3"/>
		<rect x="1115.1" y="5.9" class="st5" width="2.8" height="36.3"/>
		<rect x="1107.6" y="5.9" class="st5" width="2.8" height="36.3"/>
		<rect x="1100" y="5.9" class="st5" width="2.8" height="36.3"/>
		<rect x="1092.5" y="5.9" class="st5" width="2.8" height="36.3"/>
		<rect x="1085" y="5.9" class="st5" width="2.8" height="36.3"/>
		<rect x="1077.5" y="5.9" class="st5" width="2.8" height="36.3"/>
		<rect x="1070" y="5.9" class="st5" width="2.8" height="36.3"/>
		<rect x="1062.5" y="5.9" class="st5" width="2.8" height="36.3"/>
		<rect x="1055" y="5.9" class="st5" width="2.8" height="36.3"/>
		<rect x="1047.5" y="5.9" class="st5" width="2.8" height="36.3"/>
		<rect x="1040" y="5.9" class="st5" width="2.8" height="36.3"/>
		<rect x="1156.8" y="46.2" class="st0" width="1.9" height="7.5"/>
		<rect x="1152.1" y="49" class="st0" width="5.6" height="1.9"/>
		<rect x="1022.6" y="49" class="st0" width="5.6" height="1.9"/>
		<rect x="1147.9" y="1" class="st5" width="4.6" height="4.1"/>
		<rect x="1027.8" y="1" class="st5" width="4.6" height="4.1"/>
		<rect x="1128.6" y="58.3" class="st0" width="7.5" height="0.9"/>
		<rect x="1045.1" y="58.3" class="st0" width="7.5" height="0.9"/>
		<rect x="1128.6" y="56.5" class="st0" width="8.4" height="0.9"/>
		<rect x="1045.1" y="56.5" class="st0" width="8.4" height="0.9"/>
		<rect x="1130.5" y="53.7" class="st0" width="11.3" height="0.9"/>
		<rect x="1039.5" y="53.7" class="st0" width="11.3" height="0.9"/>
	</g>
	<path class="st6" d="M309.4,53.2l-4.7,4.7h-43.6l-5.2-4.7"/>
	<path class="st5" d="M307.1,53.2l-2.3,2.3h-43.6l-2.8-2.8"/>
	<rect x="219.4" y="1" class="st5" width="124.7" height="42.9"/>
	<rect x="219.9" y="47.2" class="st6" width="123.7" height="5.5"/>
	<path class="st5" d="M333.8,65.4c-3.1,0-5.7-2.5-5.7-5.6c0-3.1,2.5-5.6,5.7-5.6c3.1,0,5.7,2.5,5.7,5.6
		C339.5,62.9,336.9,65.4,333.8,65.4z"/>
	<path class="st6" d="M333.8,63.1c-1.8,0-3.3-1.5-3.3-3.3c0-1.8,1.5-3.3,3.3-3.3c1.8,0,3.3,1.5,3.3,3.3
		C337.1,61.6,335.6,63.1,333.8,63.1z"/>
	<path class="st5" d="M315,65.4c-3.1,0-5.7-2.5-5.7-5.6c0-3.1,2.5-5.6,5.7-5.6c3.1,0,5.7,2.5,5.7,5.6
		C320.7,62.9,318.2,65.4,315,65.4z"/>
	<path class="st6" d="M315,63.1c-1.8,0-3.3-1.5-3.3-3.3c0-1.8,1.5-3.3,3.3-3.3c1.8,0,3.3,1.5,3.3,3.3
		C318.4,61.6,316.9,63.1,315,63.1z"/>
	<path class="st5" d="M250.3,65.4c-3.1,0-5.7-2.5-5.7-5.6c0-3.1,2.5-5.6,5.7-5.6c3.1,0,5.7,2.5,5.7,5.6
		C256,62.9,253.4,65.4,250.3,65.4z"/>
	<path class="st6" d="M250.3,63.1c-1.8,0-3.3-1.5-3.3-3.3c0-1.8,1.5-3.3,3.3-3.3c1.8,0,3.3,1.5,3.3,3.3
		C253.7,61.6,252.2,63.1,250.3,63.1z"/>
	<path class="st5" d="M231.6,65.4c-3.1,0-5.7-2.5-5.7-5.6c0-3.1,2.5-5.6,5.7-5.6c3.1,0,5.7,2.5,5.7,5.6
		C237.2,62.9,234.7,65.4,231.6,65.4z"/>
	<path class="st6" d="M231.6,63.1c-1.8,0-3.3-1.5-3.3-3.3c0-1.8,1.5-3.3,3.3-3.3c1.8,0,3.3,1.5,3.3,3.3
		C234.9,61.6,233.4,63.1,231.6,63.1z"/>
	<rect x="328.6" y="49" class="st0" width="1.9" height="1.9"/>
	<rect x="309.9" y="49" class="st0" width="1.9" height="1.9"/>
	<rect x="291.1" y="49" class="st0" width="1.9" height="1.9"/>
	<rect x="272.4" y="49" class="st0" width="1.9" height="1.9"/>
	<rect x="253.6" y="49" class="st0" width="1.9" height="1.9"/>
	<rect x="234.8" y="49" class="st0" width="1.9" height="1.9"/>
	<rect x="222.7" y="4.7" class="st6" width="117.1" height="38.7"/>
	<rect x="328.7" y="5.5" class="st5" width="2.8" height="36.3"/>
	<rect x="321.6" y="5.9" class="st5" width="2.8" height="36.3"/>
	<rect x="314.1" y="5.9" class="st5" width="2.8" height="36.3"/>
	<rect x="306.6" y="5.9" class="st5" width="2.8" height="36.3"/>
	<rect x="299.1" y="5.9" class="st5" width="2.8" height="36.3"/>
	<rect x="291.6" y="5.9" class="st5" width="2.8" height="36.3"/>
	<rect x="284.1" y="5.9" class="st5" width="2.8" height="36.3"/>
	<rect x="276.6" y="5.9" class="st5" width="2.8" height="36.3"/>
	<rect x="269.1" y="5.9" class="st5" width="2.8" height="36.3"/>
	<rect x="261.6" y="5.9" class="st5" width="2.8" height="36.3"/>
	<rect x="254.1" y="5.9" class="st5" width="2.8" height="36.3"/>
	<rect x="246.6" y="5.9" class="st5" width="2.8" height="36.3"/>
	<rect x="239.1" y="5.9" class="st5" width="2.8" height="36.3"/>
	<rect x="231.6" y="5.9" class="st5" width="2.8" height="36.3"/>
	<rect x="348.3" y="46.2" class="st0" width="1.9" height="7.5"/>
	<rect x="343.7" y="49" class="st0" width="5.6" height="1.9"/>
	<rect x="213.3" y="46.2" class="st0" width="1.9" height="7.5"/>
	<rect x="214.2" y="49" class="st0" width="5.6" height="1.9"/>
	<rect x="339.5" y="1" class="st5" width="4.6" height="4.1"/>
	<rect x="219.4" y="1" class="st5" width="4.6" height="4.1"/>
	<rect x="320.2" y="58.3" class="st0" width="7.5" height="0.9"/>
	<rect x="236.7" y="58.3" class="st0" width="7.5" height="0.9"/>
	<rect x="320.2" y="56.5" class="st0" width="8.4" height="0.9"/>
	<rect x="236.7" y="56.5" class="st0" width="8.4" height="0.9"/>
	<rect x="322.1" y="53.7" class="st0" width="11.3" height="0.9"/>
	<rect x="231.1" y="53.7" class="st0" width="11.3" height="0.9"/>
	<path class="st5" d="M206,30.9c0,0-1.2,0.6-3.2-2.9l-5.4-10.4c0,0-1.5-2.9,0.7-4.5"/>
	<path class="st5" d="M191.4,14c0.6,0,1.1,0.2,1.5,0.7c1,1.2,2.9,3.8,4,7.3c0,0,0.1,0.8-1.3,0.8h-14.7c-0.6,0-1.1-0.3-1.5-0.7
		l-0.6-0.8c-0.3-0.3-0.4-0.7-0.4-1.2v-4.3c0-1,0.8-1.9,1.9-1.9H191.4z"/>
	<path class="st7" d="M136.2,19.6c0,0,1.1,0.7,1.1,2.7"/>
	
		<rect x="144.4" y="13.8" transform="matrix(-1 -1.224647e-16 1.224647e-16 -1 297.1851 29.9594)" class="st3" width="8.3" height="2.4"/>
	
		<rect x="144.4" y="10" transform="matrix(-1 -1.224647e-16 1.224647e-16 -1 297.1851 22.4779)" class="st3" width="8.3" height="2.4"/>
	
		<rect x="134.4" y="13.8" transform="matrix(-1 -1.224647e-16 1.224647e-16 -1 277.0739 29.9594)" class="st3" width="8.3" height="2.4"/>
	
		<rect x="134.4" y="10" transform="matrix(-1 -1.224647e-16 1.224647e-16 -1 277.0739 22.4779)" class="st3" width="8.3" height="2.4"/>
	
		<rect x="124.3" y="13.8" transform="matrix(-1 -1.224647e-16 1.224647e-16 -1 256.9629 29.9594)" class="st3" width="8.3" height="2.4"/>
	
		<rect x="124.3" y="10" transform="matrix(-1 -1.224647e-16 1.224647e-16 -1 256.9629 22.4779)" class="st3" width="8.3" height="2.4"/>
	
		<rect x="114.3" y="13.8" transform="matrix(-1 -1.224647e-16 1.224647e-16 -1 236.8517 29.9594)" class="st3" width="8.3" height="2.4"/>
	
		<rect x="114.3" y="10" transform="matrix(-1 -1.224647e-16 1.224647e-16 -1 236.8517 22.4779)" class="st3" width="8.3" height="2.4"/>
	<path class="st5" d="M197.5,12.3h-35.9c-0.2,0-0.3,0.1-0.4,0.2l-5.3,5.5c0,0-0.8,0.7-1.6,0.8H99.1"/>
	<polyline class="st5" points="166.1,55.5 169,55.5 169.9,59.7 168.5,59.7 167.6,61.4 171.8,63.8 180.6,63.8 184.6,61.6 184.2,59.6 
		182.3,59.6 183.4,55.5 186.1,55.5 	"/>
	<path class="st5" d="M200.6,58.8h-2.8c0,0-1.7-6.6-5.2-7.4h4.7L200.6,58.8z"/>
	<path class="st5" d="M182,36.9h23.4c0.9,0,1.6-0.7,1.6-1.6l0,0c0-0.9-0.7-1.6-1.6-1.6H182c-0.9,0-1.6,0.7-1.6,1.6l0,0
		C180.4,36.1,181.1,36.9,182,36.9z"/>
	<polyline class="st3" points="180.4,63.8 180.4,59.1 179.6,57.7 177.6,57.7 177,59.1 177,63.8 	"/>
	<polyline class="st3" points="175.5,63.8 175.5,59.1 174.8,57.7 172.7,57.7 172.1,59.1 172.1,63.8 	"/>
	<polyline class="st3" points="188,51.4 185.1,53.6 167.6,53.6 164.6,51.4 	"/>
	<line class="st2" x1="36" y1="56.7" x2="48.1" y2="56.7"/>
	<rect x="38.5" y="59.2" class="st0" width="0.3" height="4.7"/>
	<rect x="39" y="59.2" class="st0" width="0.3" height="4.7"/>
	<rect x="39.6" y="59.2" class="st0" width="0.3" height="4.7"/>
	<rect x="40.1" y="59.2" class="st0" width="0.3" height="4.7"/>
	<rect x="43.4" y="59.2" class="st0" width="0.3" height="4.7"/>
	<rect x="44" y="59.2" class="st0" width="0.3" height="4.7"/>
	<rect x="44.5" y="59.2" class="st0" width="0.3" height="4.7"/>
	<rect x="45" y="59.2" class="st0" width="0.3" height="4.7"/>
	<path class="st0" d="M5.8,52.5v2.6H2.1v-2.6H0v1.6c0.7,0.8,2,2.5,1.9,3.9h1.4v-1.3h1.6V58h4.8c0,0,0.2-1.2,0.6-4.2h2v-1.3H5.8z"/>
	<line class="st1" x1="61.9" y1="30.1" x2="103" y2="30.1"/>
	<path class="st1" d="M38.8,36.9c0,0-0.3,1.6-2,2.2c-0.1,0-0.3,0.1-0.4,0.1H11"/>
	<line class="st1" x1="21.6" y1="7.6" x2="21.6" y2="10.6"/>
	<polyline class="st3" points="66.4,58.1 66.4,59.7 65.2,59.7 67,63 91.3,63 93.1,59.6 90.9,59.6 90.9,58.1 88.7,58.1 88.7,59.2 
		67.8,59.2 67.8,58.1 	"/>
	<polyline class="st2" points="64.5,51.4 64.5,55.5 63.7,56.4 63.7,57.4 64.5,58.1 93.2,58.1 93.8,57.4 93.8,56.1 93.1,55.5 
		93.1,51.4 90.9,51.4 90.9,55.5 67,55.5 67,50.8 	"/>
	<polyline class="st3" points="98.5,58.1 98.5,59.7 97.4,59.7 99,63 120.4,63 122,59.6 120,59.6 120,58.1 118.2,58.1 118.2,59.2 
		99.7,59.2 99.7,58.1 	"/>
	<polyline class="st2" points="96.8,51.4 96.8,55.5 96.1,56.4 96.1,57.4 96.8,58.1 122.1,58.1 122.7,57.4 122.7,56.1 122,55.5 
		122,51.4 120,51.4 120,55.5 99,55.5 99,50.8 	"/>
	<path class="st4" d="M116.3,63c-20.4,0-33.1,0-52.9,0c0,0,3.2-9.2-6.1-12.2"/>
	<polyline class="st2" points="35.1,56.7 36,56.7 36.6,55.5 47.7,55.5 48.1,56.7 48.9,56.7 	"/>
	<path class="st2" d="M39.7,49.2H19.6c-0.1,0-0.3,0.1-0.3,0.2L15.7,57c-0.2,0.5-0.6,1-0.9,1.4c-0.9,0.9-2.5,2.5-3.8,2.9"/>
	<rect x="42.5" y="47.4" class="st2" width="11" height="1.5"/>
	<rect x="68" y="35.2" class="st0" width="2.7" height="0.4"/>
	<rect x="67.6" y="33" class="st0" width="3.3" height="0.9"/>
	<rect x="93.3" y="35.2" class="st0" width="2.7" height="0.4"/>
	<rect x="93" y="33" class="st0" width="3.3" height="0.9"/>
	<polyline class="st5" points="58.5,43.8 58.5,33.1 59.5,31.7 79,31.7 80.2,33 80.2,43.8 	"/>
	<polyline class="st5" points="83.8,43.8 83.8,33.1 84.8,31.7 104.3,31.7 105.4,33 105.4,43.8 	"/>
	<polyline class="st1" points="20.4,10.4 35.3,10.4 57.8,10.4 62.5,15.3 	"/>
	<rect x="41.4" y="27.2" class="st0" width="4.1" height="0.9"/>
	<path class="st5" d="M50,24.2h-3.7c-1,0-1.9-0.8-1.9-1.9v-4.9c0-1,0.8-1.9,1.9-1.9H50c1,0,1.9,0.8,1.9,1.9v4.9
		C51.8,23.4,51,24.2,50,24.2z"/>
	<path class="st3" d="M37,28.1H19.2c-0.7,0-1.2-0.5-1.2-1.2l0,0c0-0.7,0.5-1.2,1.2-1.2H37c0.7,0,1.2,0.5,1.2,1.2l0,0
		C38.2,27.6,37.7,28.1,37,28.1z"/>
	<path class="st3" d="M41.5,43.8V15.6c0,0,0-0.1,0-0.1l0.4-1.7c0-0.2,0.2-0.3,0.3-0.3h11.9c0.2,0,0.3,0.1,0.3,0.3l0.2,1.6
		c0,0,0,0,0,0.1v16.2v12"/>
	<g>
		<rect x="63.2" y="21.8" class="st0" width="0.5" height="4.9"/>
		<rect x="64.3" y="21.8" class="st0" width="0.5" height="4.9"/>
		<rect x="65.3" y="21.8" class="st0" width="0.5" height="4.9"/>
		<rect x="66.4" y="21.8" class="st0" width="0.5" height="4.9"/>
		<rect x="67.5" y="21.8" class="st0" width="0.5" height="4.9"/>
		<rect x="68.6" y="21.8" class="st0" width="0.5" height="4.9"/>
		<rect x="69.7" y="21.8" class="st0" width="0.5" height="4.9"/>
		<rect x="70.8" y="21.8" class="st0" width="0.5" height="4.9"/>
		<rect x="71.8" y="21.8" class="st0" width="0.5" height="4.9"/>
		<rect x="72.9" y="21.8" class="st0" width="0.5" height="4.9"/>
		<rect x="74" y="21.8" class="st0" width="0.5" height="4.9"/>
		<rect x="75.1" y="21.8" class="st0" width="0.5" height="4.9"/>
		<rect x="76.2" y="21.8" class="st0" width="0.5" height="4.9"/>
		<rect x="77.3" y="21.8" class="st0" width="0.5" height="4.9"/>
		<polygon class="st3" points="61.5,27.7 61.5,23.2 63.3,20.5 78,20.5 79.4,23.2 79.4,27.7 		"/>
	</g>
	<g>
		<rect x="86" y="21.8" class="st0" width="0.5" height="4.9"/>
		<rect x="87.1" y="21.8" class="st0" width="0.5" height="4.9"/>
		<rect x="88.2" y="21.8" class="st0" width="0.5" height="4.9"/>
		<rect x="89.3" y="21.8" class="st0" width="0.5" height="4.9"/>
		<rect x="90.3" y="21.8" class="st0" width="0.5" height="4.9"/>
		<rect x="91.4" y="21.8" class="st0" width="0.5" height="4.9"/>
		<rect x="92.5" y="21.8" class="st0" width="0.5" height="4.9"/>
		<rect x="93.6" y="21.8" class="st0" width="0.5" height="4.9"/>
		<rect x="94.7" y="21.8" class="st0" width="0.5" height="4.9"/>
		<rect x="95.8" y="21.8" class="st0" width="0.5" height="4.9"/>
		<rect x="96.8" y="21.8" class="st0" width="0.5" height="4.9"/>
		<rect x="97.9" y="21.8" class="st0" width="0.5" height="4.9"/>
		<rect x="99" y="21.8" class="st0" width="0.5" height="4.9"/>
		<rect x="100.1" y="21.8" class="st0" width="0.5" height="4.9"/>
		<polygon class="st3" points="84.4,27.7 84.4,23.2 86.1,20.5 100.8,20.5 102.2,23.2 102.2,27.7 		"/>
	</g>
	<polygon class="st0" points="44.1,40.5 52.3,40.5 51.3,41.2 45.1,41.2 	"/>
	<rect x="55.5" y="21.4" class="st3" width="1.2" height="29.4"/>
	<rect x="39.7" y="21.4" class="st3" width="1.2" height="29.4"/>
	<path class="st5" d="M27.9,65.3c3.1,0,5.7-2.5,5.7-5.6c0-3.1-2.5-5.6-5.7-5.6s-5.7,2.5-5.7,5.6C22.2,62.8,24.8,65.3,27.9,65.3z"/>
	<path class="st6" d="M27.9,63c1.8,0,3.3-1.5,3.3-3.3c0-1.8-1.5-3.3-3.3-3.3s-3.3,1.5-3.3,3.3C24.5,61.6,26,63,27.9,63z"/>
	<path class="st5" d="M56.2,65.3c3.1,0,5.7-2.5,5.7-5.6c0-3.1-2.5-5.6-5.7-5.6s-5.7,2.5-5.7,5.6C50.5,62.8,53.1,65.3,56.2,65.3z"/>
	<path class="st6" d="M56.2,63c1.8,0,3.3-1.5,3.3-3.3c0-1.8-1.5-3.3-3.3-3.3s-3.3,1.5-3.3,3.3C52.8,61.6,54.3,63,56.2,63z"/>
	<path class="st6" d="M207.4,62.3c-1.2-4-1.6-8.2-1.6-8.2s0.1-6.2,0.2-6.9c0.1-0.7,0.4-0.6,0.4-0.6c1,0,1-1.6,1-1.6
		c0-0.8-0.6-1.2-0.6-1.2v-7.1l0.4-0.6c0.7-1.3-0.6-2.7-0.6-2.7l-0.3-1.1c-2.7-11.7-8.9-20.1-8.9-20.1l-0.1-0.9h0.8
		c0.4-3-0.3-4.2-0.3-4.2l-6.2,0.2L190.4,8h-8.7l-4.9-2.2h-16.3l-2.8,2.3h-46.9H109H60.3l-2.8-2.3H41.2L36.3,8h-8.7l-1.2-0.6
		l-6.2-0.2c0,0-0.8,1.2-0.3,4.2h0.8l-0.1,0.9c0,0-6.2,8.4-8.9,20.1l-0.3,1.1c0,0-1.2,1.4-0.6,2.7l0.4,0.6v7.1c0,0-0.6,0.3-0.6,1.2
		c0,0,0,1.6,1,1.6c0,0,0.3-0.1,0.4,0.6c0.1,0.7,0.2,6.9,0.2,6.9s-0.4,4.2-1.6,8.2c0,0-0.1,0.9,0.4,0.8c0,0,4.9-0.7,7-6.7l3-5.5H109
		h1.8H197l3,5.5c2.1,6,7,6.7,7,6.7C207.6,63.2,207.4,62.3,207.4,62.3z"/>
	<path class="st5" d="M12.1,30.9c0,0,1.2,0.6,3.2-2.9l5.4-10.4c0,0,1.5-2.9-0.7-4.5"/>
	<path class="st5" d="M26.7,14c-0.6,0-1.1,0.2-1.5,0.7c-1,1.2-2.9,3.8-4,7.3c0,0-0.1,0.8,1.3,0.8h14.7c0.6,0,1.1-0.3,1.5-0.7
		l0.6-0.8c0.3-0.3,0.4-0.7,0.4-1.2v-4.3c0-1-0.8-1.9-1.9-1.9H26.7z"/>
	<path class="st7" d="M81.9,19.6c0,0-1.1,0.7-1.1,2.7"/>
	<rect x="65.4" y="13.8" class="st3" width="8.3" height="2.4"/>
	<rect x="65.4" y="10" class="st3" width="8.3" height="2.4"/>
	<rect x="75.5" y="13.8" class="st3" width="8.3" height="2.4"/>
	<rect x="75.5" y="10" class="st3" width="8.3" height="2.4"/>
	<rect x="85.5" y="13.8" class="st3" width="8.3" height="2.4"/>
	<rect x="85.5" y="10" class="st3" width="8.3" height="2.4"/>
	<rect x="95.6" y="13.8" class="st3" width="8.3" height="2.4"/>
	<rect x="95.6" y="10" class="st3" width="8.3" height="2.4"/>
	<path class="st5" d="M20.6,12.3h35.9c0.2,0,0.3,0.1,0.4,0.2l5.3,5.5c0,0,0.8,0.7,1.6,0.8H119"/>
	<polyline class="st5" points="52,55.5 49.1,55.5 48.2,59.7 49.6,59.7 50.5,61.4 46.3,63.8 37.6,63.8 33.5,61.6 33.9,59.6 
		35.8,59.6 34.7,55.5 32.1,55.5 	"/>
	<path class="st5" d="M17.6,58.8h2.8c0,0,1.7-6.6,5.2-7.4h-4.7L17.6,58.8z"/>
	<path class="st5" d="M11.7,45L11.7,45c0,0.7,0.5,1.2,1.2,1.2h193.1c0.7,0,1.2-0.5,1.2-1.2l0,0c0-0.7-0.5-1.2-1.2-1.2H12.8
		C12.2,43.8,11.7,44.3,11.7,45z"/>
	<path class="st5" d="M36.2,36.9H12.7c-0.9,0-1.6-0.7-1.6-1.6l0,0c0-0.9,0.7-1.6,1.6-1.6h23.4c0.9,0,1.6,0.7,1.6,1.6l0,0
		C37.8,36.1,37.1,36.9,36.2,36.9z"/>
	<polyline class="st3" points="37.8,63.8 37.8,59.1 38.5,57.7 40.5,57.7 41.2,59.1 41.2,63.8 	"/>
	<polyline class="st3" points="42.7,63.8 42.7,59.1 43.4,57.7 45.4,57.7 46,59.1 46,63.8 	"/>
	<polyline class="st3" points="30.1,51.4 33.1,53.6 50.5,53.6 53.5,51.4 	"/>
</g>
</svg>
