<svg width="355" height="100" viewBox="0 0 355 100" fill="none" xmlns="http://www.w3.org/2000/svg">
<g clip-path="url(#clip0_982_9222)">
<path d="M1631.93 95.7422H0.0546875V100.024H1631.93V95.7422Z" fill="#294596"/>
<path d="M1632.14 92.0078H0.265625V93.5994H1632.14V92.0078Z" fill="#294596"/>
<path d="M159.055 29.5312H153.675H148.308L146.379 32.0101V41.0946L150.238 45.2636V60.4186H153.675H157.125V45.2636L160.985 41.0946V32.0101L159.055 29.5312Z" stroke="#294496" stroke-width="0.3"/>
<path d="M256.663 79.2344H239.508" stroke="#294496" stroke-width="0.6" stroke-miterlimit="10"/>
<path d="M252.69 89.3672H253.07V82.7475H252.69V89.3672Z" fill="#294496"/>
<path d="M251.932 89.3672H252.312V82.7475H251.932V89.3672Z" fill="#294496"/>
<path d="M251.155 89.3672H251.535V82.7475H251.155V89.3672Z" fill="#294496"/>
<path d="M250.393 89.3672H250.773V82.7475H250.393V89.3672Z" fill="#294496"/>
<path d="M245.776 89.3672H246.156V82.7475H245.776V89.3672Z" fill="#294496"/>
<path d="M245.014 89.3672H245.395V82.7475H245.014V89.3672Z" fill="#294496"/>
<path d="M244.253 89.3672H244.633V82.7475H244.253V89.3672Z" fill="#294496"/>
<path d="M243.479 89.3672H243.859V82.7475H243.479V89.3672Z" fill="#294496"/>
<path d="M220.186 41.7109H162.172" stroke="#294496" stroke-width="0.3"/>
<path d="M252.605 51.2656C252.786 51.9715 253.137 52.6222 253.628 53.1601C254.119 53.6981 254.736 54.1068 255.422 54.3501C255.612 54.418 255.812 54.4514 256.014 54.4487H291.789" stroke="#294496" stroke-width="0.3"/>
<path d="M276.93 10.1094V14.2221" stroke="#294496" stroke-width="0.3"/>
<path d="M213.828 81.2422V83.4394H215.532L213.039 88.1295H179.49L176.898 83.3549H180.011V81.2422H182.969V82.7633H211.955V81.2422" stroke="#294496" stroke-width="0.6"/>
<path d="M216.449 71.684V77.5572L217.576 78.7403V80.2333L216.449 81.2333H176.787L175.914 80.2051V78.3882L176.956 77.5572V71.684H180.013V77.5572H213.041V70.9375" stroke="#294496" stroke-width="0.6" stroke-miterlimit="10"/>
<path d="M143.438 88.0753H218.536C218.536 88.0753 212.198 77.5119 226.607 70.9062" stroke="#294496" stroke-width="1.5"/>
<path d="M257.927 79.2526H256.66L255.716 77.5625H240.153L239.519 79.2526H238.477" stroke="#294496" stroke-width="0.6" stroke-miterlimit="10"/>
<path d="M251.367 68.6328H279.733C279.829 68.633 279.923 68.6611 280.003 68.7136C280.083 68.7662 280.146 68.8408 280.184 68.9286L285.142 79.6187C285.471 80.3445 285.919 81.0108 286.466 81.5906C287.93 83.3088 289.758 84.68 291.818 85.6046" stroke="#294496" stroke-width="0.6" stroke-miterlimit="10"/>
<path d="M231.928 68.2188H247.449V66.1342H231.928V68.2188Z" stroke="#294496" stroke-width="0.6" stroke-miterlimit="10"/>
<path d="M207.833 49.5625H211.594V48.9428H207.833V49.5625Z" fill="#294496"/>
<path d="M207.407 47.0547H212.055V45.8575H207.407V47.0547Z" fill="#294496"/>
<path d="M172.142 49.5625H175.902V48.9428H172.142V49.5625Z" fill="#294496"/>
<path d="M171.719 47.0547H176.367V45.8575H171.719V47.0547Z" fill="#294496"/>
<path d="M224.871 61.0438V45.8889L223.448 44.0156H195.97L194.406 45.7903V61.0438" stroke="#294496"/>
<path d="M189.281 61.0438V45.8889L187.859 44.0156H160.38L158.816 45.7903V61.0438" stroke="#294496"/>
<path d="M278.521 14.0156H257.619H225.859L219.211 20.8325" stroke="#294496" stroke-width="0.3"/>
<path d="M243.243 38.9531H249.031V37.6433H243.243V38.9531Z" fill="#294496"/>
<path d="M236.946 33.4141H242.101C243.555 33.4141 244.734 32.2349 244.734 30.7803V23.8929C244.734 22.4383 243.555 21.2591 242.101 21.2591H236.946C235.491 21.2591 234.312 22.4383 234.312 23.8929V30.7803C234.312 32.2349 235.491 33.4141 236.946 33.4141Z" stroke="#294496"/>
<path d="M255.114 38.9531H280.199C281.125 38.9531 281.875 38.2059 281.875 37.2841C281.875 36.3623 281.125 35.6151 280.199 35.6151H255.114C254.189 35.6151 253.438 36.3623 253.438 37.2841C253.438 38.2059 254.189 38.9531 255.114 38.9531Z" stroke="#294496" stroke-width="0.6"/>
<path d="M248.858 61.0477V21.5125C248.879 21.3582 248.879 21.2019 248.858 21.0477L248.591 19.9632C248.479 19.5565 248.236 19.198 247.9 18.9434C247.564 18.6887 247.153 18.5521 246.732 18.5547H232.239C231.783 18.556 231.342 18.7197 230.996 19.0166C230.65 19.3135 230.422 19.724 230.351 20.1744L230.196 21.1744C230.19 21.2682 230.19 21.3624 230.196 21.4561V61.0477" stroke="#294496" stroke-width="0.6"/>
<path d="M217.608 36.9609H218.312V30.0173H217.608V36.9609Z" fill="#294496"/>
<path d="M216.085 36.9609H216.789V30.0173H216.085V36.9609Z" fill="#294496"/>
<path d="M214.561 36.9609H215.266V30.0173H214.561V36.9609Z" fill="#294496"/>
<path d="M213.03 36.9609H213.734V30.0173H213.03V36.9609Z" fill="#294496"/>
<path d="M211.507 36.9609H212.211V30.0173H211.507V36.9609Z" fill="#294496"/>
<path d="M209.983 36.9609H210.688V30.0173H209.983V36.9609Z" fill="#294496"/>
<path d="M208.452 36.9609H209.156V30.0173H208.452V36.9609Z" fill="#294496"/>
<path d="M206.929 36.9609H207.633V30.0173H206.929V36.9609Z" fill="#294496"/>
<path d="M205.409 36.9609H206.113V30.0173H205.409V36.9609Z" fill="#294496"/>
<path d="M203.874 36.9609H204.578V30.0173H203.874V36.9609Z" fill="#294496"/>
<path d="M202.35 36.9609H203.055V30.0173H202.35V36.9609Z" fill="#294496"/>
<path d="M200.831 36.9609H201.535V30.0173H200.831V36.9609Z" fill="#294496"/>
<path d="M199.296 36.9609H200V30.0173H199.296V36.9609Z" fill="#294496"/>
<path d="M197.772 36.9609H198.477V30.0173H197.772V36.9609Z" fill="#294496"/>
<path d="M220.633 38.2876V31.9778L218.126 28.2031H197.478L195.492 31.9778V38.2876H220.633Z" stroke="#294496" stroke-width="0.6"/>
<path d="M185.452 36.9609H186.156V30.0173H185.452V36.9609Z" fill="#294496"/>
<path d="M183.929 36.9609H184.633V30.0173H183.929V36.9609Z" fill="#294496"/>
<path d="M182.409 36.9609H183.113V30.0173H182.409V36.9609Z" fill="#294496"/>
<path d="M180.874 36.9609H181.578V30.0173H180.874V36.9609Z" fill="#294496"/>
<path d="M179.35 36.9609H180.055V30.0173H179.35V36.9609Z" fill="#294496"/>
<path d="M177.831 36.9609H178.535V30.0173H177.831V36.9609Z" fill="#294496"/>
<path d="M176.296 36.9609H177V30.0173H176.296V36.9609Z" fill="#294496"/>
<path d="M174.772 36.9609H175.477V30.0173H174.772V36.9609Z" fill="#294496"/>
<path d="M173.253 36.9609H173.957V30.0173H173.253V36.9609Z" fill="#294496"/>
<path d="M171.718 36.9609H172.422V30.0173H171.718V36.9609Z" fill="#294496"/>
<path d="M170.194 36.9609H170.898V30.0173H170.194V36.9609Z" fill="#294496"/>
<path d="M168.679 36.9609H169.383V30.0173H168.679V36.9609Z" fill="#294496"/>
<path d="M167.14 36.9609H167.844V30.0173H167.14V36.9609Z" fill="#294496"/>
<path d="M165.62 36.9609H166.324V30.0173H165.62V36.9609Z" fill="#294496"/>
<path d="M188.481 38.2876V31.9778L185.974 28.2031H165.326L163.34 31.9778V38.2876H188.481Z" stroke="#294496" stroke-width="0.6"/>
<path d="M245.239 56.3828H233.605L235.112 57.3265H243.831L245.239 56.3828Z" fill="#294496"/>
<path d="M227.48 70.9609H229.156V29.5525H227.48V70.9609Z" stroke="#294496" stroke-width="0.6"/>
<path d="M249.691 70.9609H251.367V29.5525H249.691V70.9609Z" stroke="#294496" stroke-width="0.6"/>
<path d="M268.028 91.3668C266.461 91.3585 264.933 90.8864 263.634 90.01C262.336 89.1336 261.326 87.8923 260.732 86.4426C260.138 84.993 259.987 83.4 260.298 81.8646C260.609 80.3292 261.367 78.9202 262.478 77.8155C263.589 76.7107 265.002 75.9597 266.539 75.6571C268.076 75.3546 269.668 75.514 271.114 76.1154C272.561 76.7168 273.797 77.7332 274.666 79.0363C275.536 80.3393 276 81.8708 276 83.4373C275.998 84.4816 275.79 85.5154 275.388 86.4794C274.987 87.4434 274.399 88.3187 273.658 89.0552C272.918 89.7917 272.039 90.375 271.073 90.7716C270.107 91.1683 269.072 91.3706 268.028 91.3668Z" stroke="#294496"/>
<path d="M268.029 88.0677C267.103 88.0621 266.199 87.7823 265.431 87.2636C264.664 86.7449 264.067 86.0105 263.716 85.153C263.366 84.2955 263.277 83.3533 263.461 82.4454C263.645 81.5375 264.094 80.7044 264.751 80.0513C265.408 79.3982 266.244 78.9543 267.153 78.7756C268.062 78.5969 269.003 78.6914 269.859 79.0472C270.714 79.403 271.445 80.0041 271.959 80.7748C272.473 81.5455 272.747 82.4511 272.747 83.3776C272.746 83.9953 272.622 84.6067 272.384 85.1767C272.146 85.7468 271.798 86.2643 271.36 86.6998C270.922 87.1354 270.402 87.4803 269.83 87.715C269.259 87.9497 268.647 88.0696 268.029 88.0677Z" stroke="#294496" stroke-width="2"/>
<path d="M228.223 91.3668C226.657 91.3585 225.128 90.8864 223.829 90.01C222.531 89.1336 221.521 87.8923 220.927 86.4426C220.334 84.993 220.183 83.3999 220.493 81.8646C220.804 80.3292 221.563 78.9202 222.673 77.8155C223.784 76.7107 225.197 75.9597 226.734 75.6571C228.271 75.3546 229.863 75.514 231.31 76.1154C232.756 76.7168 233.992 77.7332 234.862 79.0363C235.731 80.3393 236.195 81.8708 236.195 83.4373C236.188 85.5454 235.344 87.5643 233.849 89.051C232.355 90.5377 230.331 91.3706 228.223 91.3668Z" stroke="#294496"/>
<path d="M228.227 88.0678C227.3 88.065 226.394 87.7875 225.625 87.2705C224.856 86.7534 224.257 86.02 223.904 85.1627C223.551 84.3055 223.46 83.3629 223.643 82.454C223.825 81.5451 224.273 80.7108 224.929 80.0562C225.586 79.4017 226.422 78.9564 227.331 78.7766C228.24 78.5968 229.183 78.6905 230.039 79.0459C230.895 79.4013 231.627 80.0024 232.142 80.7734C232.656 81.5444 232.931 82.4506 232.931 83.3776C232.924 84.6217 232.425 85.8124 231.544 86.6908C230.663 87.5692 229.471 88.0641 228.227 88.0678V88.0678Z" stroke="#294496" stroke-width="2"/>
<path d="M299.184 73.2969V77.0152H304.353V73.2969H307.367V75.5786C306.381 76.7053 304.55 79.0433 304.705 81.0293H302.663V79.1279H300.437V81.0293H293.705C293.705 81.0293 293.466 79.325 292.79 75.1138H289.973V73.2969H299.184Z" fill="#294496"/>
<path d="M484.704 0.703125H309.07V61.0834H484.704V0.703125Z" stroke="#294496"/>
<path d="M483.999 65.8125H309.773V73.5167H483.999V65.8125Z" stroke="#294496" stroke-width="2"/>
<path d="M352.622 91.4028C351.052 91.3916 349.522 90.9159 348.222 90.0357C346.923 89.1555 345.914 87.9102 345.322 86.4569C344.729 85.0036 344.581 83.4075 344.895 81.8699C345.209 80.3324 345.971 78.9222 347.086 77.8175C348.2 76.7128 349.617 75.9629 351.158 75.6625C352.698 75.3621 354.293 75.5247 355.741 76.1297C357.189 76.7347 358.425 77.7551 359.294 79.062C360.162 80.3689 360.624 81.9039 360.622 83.4732C360.618 84.5194 360.408 85.5546 360.004 86.5196C359.6 87.4846 359.009 88.3604 358.266 89.0969C357.523 89.8334 356.642 90.4162 355.673 90.8119C354.705 91.2075 353.668 91.4083 352.622 91.4028Z" stroke="#294496"/>
<path d="M352.618 88.1741C351.687 88.1741 350.777 87.8978 350.003 87.3803C349.229 86.8628 348.626 86.1272 348.271 85.2668C347.915 84.4064 347.823 83.4598 348.005 82.5469C348.188 81.634 348.638 80.7958 349.297 80.1385C349.956 79.4812 350.796 79.0342 351.709 78.8543C352.623 78.6744 353.569 78.7696 354.428 79.1278C355.288 79.486 356.021 80.0911 356.537 80.8666C357.052 81.642 357.325 82.5529 357.322 83.4839C357.319 84.7291 356.821 85.9221 355.94 86.8012C355.058 87.6804 353.863 88.1741 352.618 88.1741V88.1741Z" stroke="#294496" stroke-width="2"/>
<path d="M326.197 91.4029C324.626 91.3973 323.093 90.9264 321.79 90.0495C320.487 89.1726 319.473 87.9292 318.877 86.4764C318.28 85.0236 318.128 83.4266 318.438 81.8871C318.749 80.3477 319.509 78.9349 320.623 77.8274C321.736 76.7198 323.153 75.9672 324.694 75.6645C326.235 75.3619 327.831 75.5228 329.281 76.127C330.731 76.7313 331.969 77.7516 332.839 79.0592C333.708 80.3667 334.171 81.9028 334.169 83.4733C334.161 85.5814 333.317 87.6004 331.823 89.0871C330.328 90.5738 328.305 91.4066 326.197 91.4029V91.4029Z" stroke="#294496"/>
<path d="M326.198 88.1741C325.268 88.1713 324.359 87.8926 323.587 87.3734C322.815 86.8542 322.214 86.1177 321.861 85.2571C321.507 84.3964 321.417 83.4503 321.601 82.5383C321.785 81.6263 322.236 80.7894 322.896 80.1335C323.555 79.4776 324.395 79.0321 325.308 78.8533C326.221 78.6745 327.167 78.7705 328.025 79.1291C328.884 79.4877 329.617 80.0929 330.131 80.868C330.646 81.6432 330.919 82.5535 330.916 83.4839C330.909 84.7304 330.408 85.9233 329.524 86.8021C328.64 87.6808 327.444 88.1741 326.198 88.1741Z" stroke="#294496" stroke-width="2"/>
<path d="M333.48 68.3672H330.832V71.001H333.48V68.3672Z" fill="#294496"/>
<path d="M478.706 5.97656H313.734V60.4554H478.706V5.97656Z" stroke="#294496" stroke-width="2"/>
<path d="M351.256 7.67969H347.383V58.7501H351.256V7.67969Z" stroke="#294496"/>
<path d="M340.694 7.67969H336.82V58.7501H340.694V7.67969Z" stroke="#294496"/>
<path d="M330.115 7.67969H326.242V58.7501H330.115V7.67969Z" stroke="#294496"/>
<path d="M303.085 64.4062H300.438V74.9274H303.085V64.4062Z" fill="#294496"/>
<path d="M309.687 68.3516H301.758V70.9854H309.687V68.3516Z" fill="#294496"/>
<path d="M315.591 0.703125H309.07V6.43552H315.591V0.703125Z" stroke="#294496"/>
<path d="M344.028 81.5H333.465V82.8099H344.028V81.5Z" fill="#294496"/>
<path d="M345.352 78.875H333.465V80.1849H345.352V78.875Z" fill="#294496"/>
<path d="M341.398 74.9375H325.539V76.2474H341.398V74.9375Z" fill="#294496"/>
<path d="M290.198 42.9033C290.198 42.9033 288.451 43.7061 285.634 38.8047L278.015 24.1991C278.015 24.1991 275.874 20.0864 278.987 17.8047" stroke="#294496"/>
<path d="M269.663 19.0547C270.056 19.0521 270.444 19.1366 270.799 19.3023C271.155 19.4679 271.469 19.7105 271.72 20.0125C274.213 23.0855 276.123 26.5893 277.353 30.3505C277.353 30.3505 277.438 31.4632 275.565 31.4632H254.86C254.453 31.4638 254.051 31.3715 253.685 31.1934C253.319 31.0152 252.999 30.7558 252.748 30.435L251.917 29.3646C251.561 28.894 251.369 28.3206 251.368 27.7308V21.7449C251.362 21.3936 251.426 21.0448 251.557 20.7186C251.687 20.3925 251.882 20.0955 252.128 19.8452C252.374 19.5948 252.668 19.396 252.992 19.2603C253.316 19.1246 253.664 19.0547 254.015 19.0547H269.663Z" stroke="#294496"/>
<path d="M203.505 22.1484H215.195V18.7118H203.505V22.1484Z" stroke="#294496" stroke-width="0.6"/>
<path d="M203.505 16.8906H215.195V13.454L203.505 13.454V16.8906Z" stroke="#294496" stroke-width="0.6"/>
<path d="M189.341 22.1484H201.031V18.7118H189.341V22.1484Z" stroke="#294496" stroke-width="0.6"/>
<path d="M189.341 16.8906H201.031V13.454L189.341 13.454V16.8906Z" stroke="#294496" stroke-width="0.6"/>
<path d="M175.185 22.1484H186.875V18.7118H175.185V22.1484Z" stroke="#294496" stroke-width="0.6"/>
<path d="M175.185 16.8906H186.875V13.454L175.185 13.454V16.8906Z" stroke="#294496" stroke-width="0.6"/>
<path d="M161.013 22.1484H172.703V18.7118H161.013V22.1484Z" stroke="#294496" stroke-width="0.6"/>
<path d="M161.013 16.8906H172.703V13.454L161.013 13.454V16.8906Z" stroke="#294496" stroke-width="0.6"/>
<path d="M278.255 16.6797H227.734C227.618 16.6793 227.503 16.7029 227.396 16.7489C227.289 16.795 227.193 16.8625 227.114 16.9473L219.649 24.6938C219.001 25.2745 218.208 25.6687 217.354 25.8346H139.621" stroke="#294496"/>
<path d="M234.043 77.5625H238.113L239.367 83.4357H237.409L236.127 85.8442L242.029 89.14H254.395L260.071 86.1681L259.55 83.3512H256.818L258.381 77.5625H262.142" stroke="#294496"/>
<path d="M282.549 82.1241H278.563C278.563 82.1241 276.14 72.7861 271.281 71.6875H277.943L282.549 82.1241Z" stroke="#294496"/>
<path d="M256.395 51.2656L289.409 51.2656C290.685 51.2656 291.719 50.2315 291.719 48.9558C291.719 47.6801 290.685 46.6459 289.409 46.6459L256.395 46.6459C255.119 46.6459 254.085 47.6801 254.085 48.9558C254.085 50.2315 255.119 51.2656 256.395 51.2656Z" stroke="#294496"/>
<path d="M254.082 89.1399V82.5061L253.082 80.6328H250.223L249.336 82.5061V89.1399" stroke="#294496" stroke-width="0.6"/>
<path d="M247.2 89.1399V82.5061L246.2 80.6328H243.34L242.453 82.5061V89.1399" stroke="#294496" stroke-width="0.6"/>
<path d="M264.873 71.6875L260.733 74.8847H236.127L231.93 71.6875" stroke="#294496" stroke-width="0.6"/>
<path d="M50.7031 79.2344H67.8581" stroke="#294496" stroke-width="0.6" stroke-miterlimit="10"/>
<path d="M54.6772 82.75H54.2969V89.3697H54.6772V82.75Z" fill="#294496"/>
<path d="M55.435 82.75H55.0547V89.3697H55.435V82.75Z" fill="#294496"/>
<path d="M56.1967 82.75H55.8164V89.3697H56.1967V82.75Z" fill="#294496"/>
<path d="M56.974 82.75H56.5938V89.3697H56.974V82.75Z" fill="#294496"/>
<path d="M61.5912 82.75H61.2109V89.3697H61.5912V82.75Z" fill="#294496"/>
<path d="M62.3529 82.75H61.9727V89.3697H62.3529V82.75Z" fill="#294496"/>
<path d="M63.1147 82.75H62.7344V89.3697H63.1147V82.75Z" fill="#294496"/>
<path d="M63.8725 82.75H63.4922V89.3697H63.8725V82.75Z" fill="#294496"/>
<path d="M8.16736 73.2969V77.0152H2.99835V73.2969H0.0546875V75.5786C1.02652 76.7053 2.87159 79.0433 2.70257 81.0293H4.68849V79.1279H6.91384V81.0293H13.6462C13.6462 81.0293 13.8857 79.325 14.5617 75.1138H17.3786V73.2969H8.16736Z" fill="#294496"/>
<path d="M87.1836 41.7109H145.198" stroke="#294496" stroke-width="0.3"/>
<path d="M54.7441 51.2656C54.5639 51.9715 54.2126 52.6222 53.7213 53.1601C53.2301 53.6981 52.6139 54.1068 51.9272 54.3501C51.742 54.4169 51.5465 54.4503 51.3497 54.4487H15.5469" stroke="#294496" stroke-width="0.3"/>
<path d="M30.4375 10.1094V14.2221" stroke="#294496" stroke-width="0.3"/>
<path d="M93.6074 81.2422V83.4394H91.875L94.4102 88.1295H128.607L131.227 83.3549H128.072V81.2422H125.058V82.7633H95.5088V81.2422" stroke="#294496" stroke-width="0.6"/>
<path d="M90.944 71.684V77.5572L89.7891 78.7403V80.2333L90.944 81.2333H131.352L132.24 80.2051V78.3882L131.169 77.5572V71.684H128.071V77.5572H94.4088V70.9375" stroke="#294496" stroke-width="0.6" stroke-miterlimit="10"/>
<path d="M138.746 81.2422V83.4394H137.211L139.45 88.1295H169.605L171.929 83.3549H169.14V81.2422H166.479V82.7633H140.422V81.2422" stroke="#294496" stroke-width="0.6"/>
<path d="M136.393 71.684V77.5572L135.379 78.7403V80.2333L136.393 81.2333H172.027L172.816 80.2051V78.3882L171.872 77.5572V71.684H169.139V77.5572H139.449V70.9375" stroke="#294496" stroke-width="0.6" stroke-miterlimit="10"/>
<path d="M163.919 88.0659H89.3978C89.3978 88.0659 93.8485 75.0941 80.8203 70.8828" stroke="#294496" stroke-width="1.5"/>
<path d="M49.4375 79.2526H50.7051L51.6488 77.5625H67.2121L67.8459 79.2526H68.8882" stroke="#294496" stroke-width="0.6" stroke-miterlimit="10"/>
<path d="M55.9976 68.6328H27.6173C27.5216 68.633 27.428 68.6611 27.3479 68.7136C27.2679 68.7662 27.2049 68.8408 27.1666 68.9286L22.2088 79.6187C21.8793 80.3445 21.432 81.0108 20.8849 81.5906C19.4246 83.3072 17.6014 84.6782 15.5469 85.6046" stroke="#294496" stroke-width="0.6" stroke-miterlimit="10"/>
<path d="M75.4352 66.1328H59.9141V68.2173H75.4352V66.1328Z" stroke="#294496" stroke-width="0.6" stroke-miterlimit="10"/>
<path d="M99.534 48.9297H95.7734V49.5494H99.534V48.9297Z" fill="#294496"/>
<path d="M99.9721 45.8594H95.3242V47.0566H99.9721V45.8594Z" fill="#294496"/>
<path d="M135.214 48.9297H131.453V49.5494H135.214V48.9297Z" fill="#294496"/>
<path d="M135.648 45.8594H131V47.0566H135.648V45.8594Z" fill="#294496"/>
<path d="M82.4922 61.0438V45.8889L83.9147 44.0156H111.394L112.957 45.7903V61.0438" stroke="#294496"/>
<path d="M118.086 61.0438V45.8889L119.508 44.0156H146.987L148.551 45.7903V61.0438" stroke="#294496"/>
<path d="M28.8438 14.0156H49.7311H81.5057L88.1536 20.8325" stroke="#294496" stroke-width="0.3"/>
<path d="M64.1247 37.6406H58.3359V38.9505H64.1247V37.6406Z" fill="#294496"/>
<path d="M70.4216 21.2734H65.2666C63.812 21.2734 62.6328 22.4526 62.6328 23.9072V30.7946C62.6328 32.2492 63.812 33.4284 65.2666 33.4284H70.4216C71.8762 33.4284 73.0554 32.2492 73.0554 30.7946V23.9072C73.0554 22.4526 71.8762 21.2734 70.4216 21.2734Z" stroke="#294496"/>
<path d="M52.2371 35.6172H27.1526C26.227 35.6172 25.4766 36.3644 25.4766 37.2862C25.4766 38.208 26.227 38.9552 27.1526 38.9552H52.2371C53.1628 38.9552 53.9132 38.208 53.9132 37.2862C53.9132 36.3644 53.1628 35.6172 52.2371 35.6172Z" stroke="#294496" stroke-width="0.6"/>
<path d="M58.4922 61.0431V21.3247C58.4922 21.3247 58.4922 21.3247 58.4922 21.2121L59.0697 18.8881C59.095 18.7801 59.1561 18.6838 59.243 18.6148C59.3299 18.5457 59.4376 18.5081 59.5485 18.5078H76.3091C76.4285 18.5066 76.5443 18.5488 76.635 18.6265C76.7256 18.7042 76.785 18.8122 76.8021 18.9304L77.1542 21.2402V61.0431" stroke="#294496" stroke-width="0.6"/>
<path d="M89.7589 30.0156H89.0547V36.9593H89.7589V30.0156Z" fill="#294496"/>
<path d="M91.2823 30.0156H90.5781V36.9593H91.2823V30.0156Z" fill="#294496"/>
<path d="M92.8058 30.0156H92.1016V36.9593H92.8058V30.0156Z" fill="#294496"/>
<path d="M94.337 30.0156H93.6328V36.9593H94.337V30.0156Z" fill="#294496"/>
<path d="M95.8605 30.0156H95.1562V36.9593H95.8605V30.0156Z" fill="#294496"/>
<path d="M97.3839 30.0156H96.6797V36.9593H97.3839V30.0156Z" fill="#294496"/>
<path d="M98.9152 30.0156H98.2109V36.9593H98.9152V30.0156Z" fill="#294496"/>
<path d="M100.439 30.0156H99.7344V36.9593H100.439V30.0156Z" fill="#294496"/>
<path d="M101.958 30.0156H101.254V36.9593H101.958V30.0156Z" fill="#294496"/>
<path d="M103.493 30.0156H102.789V36.9593H103.493V30.0156Z" fill="#294496"/>
<path d="M105.017 30.0156H104.312V36.9593H105.017V30.0156Z" fill="#294496"/>
<path d="M106.536 30.0156H105.832V36.9593H106.536V30.0156Z" fill="#294496"/>
<path d="M108.071 30.0156H107.367V36.9593H108.071V30.0156Z" fill="#294496"/>
<path d="M109.595 30.0156H108.891V36.9593H109.595V30.0156Z" fill="#294496"/>
<path d="M86.7344 38.2876V31.9778L89.2414 28.2031H109.889L111.875 31.9778V38.2876H86.7344Z" stroke="#294496" stroke-width="0.6"/>
<path d="M121.915 30.0156H121.211V36.9593H121.915V30.0156Z" fill="#294496"/>
<path d="M123.439 30.0156H122.734V36.9593H123.439V30.0156Z" fill="#294496"/>
<path d="M124.958 30.0156H124.254V36.9593H124.958V30.0156Z" fill="#294496"/>
<path d="M126.493 30.0156H125.789V36.9593H126.493V30.0156Z" fill="#294496"/>
<path d="M128.017 30.0156H127.312V36.9593H128.017V30.0156Z" fill="#294496"/>
<path d="M129.536 30.0156H128.832V36.9593H129.536V30.0156Z" fill="#294496"/>
<path d="M131.071 30.0156H130.367V36.9593H131.071V30.0156Z" fill="#294496"/>
<path d="M132.595 30.0156H131.891V36.9593H132.595V30.0156Z" fill="#294496"/>
<path d="M134.114 30.0156H133.41V36.9593H134.114V30.0156Z" fill="#294496"/>
<path d="M135.65 30.0156H134.945V36.9593H135.65V30.0156Z" fill="#294496"/>
<path d="M137.169 30.0156H136.465V36.9593H137.169V30.0156Z" fill="#294496"/>
<path d="M138.689 30.0156H137.984V36.9593H138.689V30.0156Z" fill="#294496"/>
<path d="M140.228 30.0156H139.523V36.9593H140.228V30.0156Z" fill="#294496"/>
<path d="M141.747 30.0156H141.043V36.9593H141.747V30.0156Z" fill="#294496"/>
<path d="M118.887 38.2876V31.9778L121.394 28.2031H142.042L144.028 31.9778V38.2876H118.887Z" stroke="#294496" stroke-width="0.6"/>
<path d="M62.125 56.3828H73.7588L72.2518 57.3265H63.5335L62.125 56.3828Z" fill="#294496"/>
<path d="M79.9026 29.5312H78.2266V70.9397H79.9026V29.5312Z" stroke="#294496" stroke-width="0.6"/>
<path d="M57.6761 29.5312H56V70.9397H57.6761V29.5312Z" stroke="#294496" stroke-width="0.6"/>
<path d="M39.3234 91.3668C40.8899 91.3585 42.4188 90.8864 43.7173 90.01C45.0157 89.1336 46.0255 87.8923 46.6192 86.4426C47.2129 84.993 47.3639 83.3999 47.0532 81.8646C46.7424 80.3292 45.9839 78.9202 44.8733 77.8155C43.7626 76.7107 42.3497 75.9597 40.8126 75.6571C39.2756 75.3546 37.6834 75.514 36.2369 76.1154C34.7905 76.7168 33.5545 77.7332 32.6851 79.0363C31.8156 80.3393 31.3516 81.8708 31.3516 83.4373C31.359 85.5454 32.2026 87.5643 33.6973 89.051C35.1919 90.5377 37.2153 91.3706 39.3234 91.3668V91.3668Z" stroke="#294496"/>
<path d="M39.3238 88.0677C40.2502 88.0621 41.1542 87.7823 41.9218 87.2636C42.6893 86.7449 43.2861 86.0105 43.6368 85.153C43.9874 84.2955 44.0763 83.3533 43.8922 82.4454C43.708 81.5375 43.2591 80.7044 42.6021 80.0513C41.9451 79.3982 41.1093 78.9543 40.2003 78.7756C39.2913 78.5969 38.3497 78.6914 37.4943 79.0472C36.639 79.403 35.9081 80.0041 35.394 80.7748C34.8799 81.5455 34.6055 82.4511 34.6055 83.3776C34.6073 83.9953 34.7308 84.6067 34.9689 85.1767C35.2071 85.7468 35.5551 86.2643 35.9933 86.6998C36.4314 87.1354 36.951 87.4803 37.5225 87.715C38.0939 87.9497 38.706 88.0696 39.3238 88.0677V88.0677Z" stroke="#294496" stroke-width="2"/>
<path d="M79.1984 91.3668C80.7649 91.3585 82.2938 90.8864 83.5923 90.01C84.8907 89.1336 85.9005 87.8923 86.4942 86.4426C87.0879 84.993 87.2389 83.4 86.9282 81.8646C86.6174 80.3292 85.8589 78.9202 84.7483 77.8155C83.6376 76.7107 82.2247 75.9597 80.6877 75.6571C79.1506 75.3546 77.5584 75.514 76.1119 76.1154C74.6655 76.7168 73.4295 77.7332 72.5601 79.0363C71.6906 80.3393 71.2266 81.8708 71.2266 83.4373C71.2284 84.4816 71.4362 85.5154 71.838 86.4794C72.2398 87.4434 72.8277 88.3187 73.5681 89.0552C74.3086 89.7917 75.187 90.375 76.1531 90.7716C77.1192 91.1683 78.154 91.3706 79.1984 91.3668V91.3668Z" stroke="#294496"/>
<path d="M79.1964 88.0678C80.1234 88.065 81.0288 87.7875 81.7983 87.2705C82.5677 86.7534 83.1666 86.02 83.5195 85.1627C83.8723 84.3055 83.9632 83.3629 83.7806 82.454C83.5981 81.5451 83.1503 80.7108 82.4938 80.0562C81.8373 79.4017 81.0016 78.9564 80.0922 78.7766C79.1827 78.5968 78.2404 78.6905 77.3843 79.0459C76.5281 79.4013 75.7964 80.0024 75.2817 80.7734C74.7669 81.5444 74.4922 82.4506 74.4922 83.3776C74.4959 84.6228 74.9932 85.8157 75.875 86.6949C76.7568 87.5741 77.9512 88.0678 79.1964 88.0678V88.0678Z" stroke="#294496" stroke-width="2"/>
<path d="M292.225 87.0588C291.139 83.284 290.399 79.4183 290.013 75.5095C290.013 75.5095 290.168 66.763 290.267 65.7912C290.365 64.8193 290.774 64.8897 290.774 64.8897C292.182 64.8897 292.182 62.6926 292.182 62.6926C292.188 62.3711 292.115 62.0533 291.97 61.7662C291.825 61.4792 291.613 61.2316 291.351 61.0447V51.1151L291.901 50.3264C292.844 48.5235 291.112 46.5799 291.112 46.5799L290.732 45.0024C288.347 34.8625 284.091 25.2567 278.182 16.6785L278.027 15.3545H279.211C279.83 11.1292 278.732 9.48129 278.732 9.48129L269.957 9.72073L268.281 10.6081H256.041L249.154 7.48129H226.182L222.267 10.7066H84.971L81.0555 7.45312H58.126L51.2386 10.6081H39.0415L37.3232 9.7489L28.5485 9.48129C28.5485 9.48129 27.464 11.1292 28.0837 15.3545H29.2527L29.0978 16.6785C23.1978 25.2583 18.9514 34.8642 16.5767 45.0024L16.1964 46.5799C16.1964 46.5799 14.464 48.5235 15.4077 50.3264L15.957 51.1151V61.0447C15.6914 61.2343 15.4767 61.4864 15.3317 61.7787C15.1868 62.0711 15.1161 62.3946 15.126 62.7207C15.126 62.7207 15.126 64.9179 16.5344 64.9179C16.5344 64.9179 16.9288 64.8334 17.0415 65.8193C17.1541 66.8052 17.295 75.5376 17.295 75.5376C16.9095 79.4465 16.1694 83.3122 15.0837 87.0869C15.0837 87.0869 14.8724 88.3545 15.6753 88.1574C15.6753 88.1574 22.5626 87.1574 25.5344 78.7771L29.7598 70.9883H277.52L281.746 78.7771C284.718 87.1574 291.605 88.1574 291.605 88.1574C292.436 88.3264 292.225 87.0588 292.225 87.0588Z" stroke="#294496" stroke-width="2"/>
<path d="M17.1016 42.9033C17.1016 42.9033 18.848 43.7061 21.6649 38.8047L29.2847 24.1991C29.2847 24.1991 31.4255 20.0864 28.3269 17.8047" stroke="#294496"/>
<path d="M37.6923 19.0548C37.3018 19.0512 36.9156 19.1354 36.5621 19.3012C36.2086 19.467 35.8969 19.7101 35.65 20.0125C33.1505 23.0815 31.2404 26.5866 30.0162 30.3506C30.0162 30.3506 29.9317 31.4632 31.8049 31.4632H52.5092C52.914 31.4617 53.3131 31.3684 53.6766 31.1903C54.0401 31.0123 54.3585 30.754 54.6078 30.4351L55.4387 29.3647C55.804 28.8984 56.0023 28.3231 56.0021 27.7309V21.7449C56.0058 21.393 55.9397 21.0438 55.8076 20.7176C55.6755 20.3914 55.48 20.0946 55.2325 19.8444C54.9849 19.5942 54.6902 19.3956 54.3654 19.2601C54.0406 19.1246 53.6921 19.0548 53.3402 19.0548H37.6923Z" stroke="#294496"/>
<path d="M103.858 18.7188H92.168V22.1554H103.858V18.7188Z" stroke="#294496" stroke-width="0.6"/>
<path d="M103.858 13.4453H92.168V16.8819H103.858V13.4453Z" stroke="#294496" stroke-width="0.6"/>
<path d="M118.026 18.7188H106.336V22.1554H118.026V18.7188Z" stroke="#294496" stroke-width="0.6"/>
<path d="M118.026 13.4453H106.336V16.8819H118.026V13.4453Z" stroke="#294496" stroke-width="0.6"/>
<path d="M132.198 18.7188H120.508V22.1554H132.198V18.7188Z" stroke="#294496" stroke-width="0.6"/>
<path d="M132.198 13.4453H120.508V16.8819H132.198V13.4453Z" stroke="#294496" stroke-width="0.6"/>
<path d="M146.354 18.7188H134.664V22.1554H146.354V18.7188Z" stroke="#294496" stroke-width="0.6"/>
<path d="M146.35 13.4453H134.66V16.8819H146.35V13.4453Z" stroke="#294496" stroke-width="0.6"/>
<path d="M29.1016 16.6797H79.6227C79.7388 16.6793 79.8538 16.7029 79.9604 16.7489C80.0671 16.795 80.163 16.8625 80.2424 16.9473L87.7072 24.6938C88.3553 25.2745 89.1487 25.6687 90.003 25.8346H167.735" stroke="#294496"/>
<path d="M73.3252 77.5625H69.2547L68.0012 83.4357H69.959L71.2407 85.8442L65.3392 89.14H52.973L47.297 86.1681L47.804 83.3512H50.5505L48.9871 77.5625H45.2266" stroke="#294496"/>
<path d="M24.8047 82.1241H28.7906C28.7906 82.1241 31.2131 72.7861 36.0723 71.6875H29.4103L24.8047 82.1241Z" stroke="#294496"/>
<path d="M290.054 61.0469H18.1385C17.2207 61.0469 16.4766 61.791 16.4766 62.7088V62.7229C16.4766 63.6408 17.2207 64.3849 18.1385 64.3849H290.054C290.972 64.3849 291.716 63.6408 291.716 62.7229V62.7088C291.716 61.791 290.972 61.0469 290.054 61.0469Z" stroke="#294496"/>
<path d="M50.9724 46.6406H17.9583C16.6826 46.6406 15.6484 47.6748 15.6484 48.9505C15.6484 50.2262 16.6826 51.2603 17.9583 51.2603H50.9724C52.2481 51.2603 53.2822 50.2262 53.2822 48.9505C53.2822 47.6748 52.2481 46.6406 50.9724 46.6406Z" stroke="#294496"/>
<path d="M53.2812 89.1399V82.5061L54.2812 80.6328H57.1404L58.0277 82.5061V89.1399" stroke="#294496" stroke-width="0.6"/>
<path d="M60.1719 89.1399V82.5061L61.1719 80.6328H64.031L64.9184 82.5061V89.1399" stroke="#294496" stroke-width="0.6"/>
<path d="M42.4922 71.6875L46.633 74.8847H71.2387L75.4359 71.6875" stroke="#294496" stroke-width="0.6"/>
</g>
<defs>
<clipPath id="clip0_982_9222">
<rect width="355" height="100" fill="white"/>
</clipPath>
</defs>
</svg>
